%TF.GenerationSoftware,KiCad,Pcbnew,9.0.0*%
%TF.CreationDate,2025-03-10T19:20:38+08:00*%
%TF.ProjectId,xk9_miniencabulator,786b395f-6d69-46e6-9965-6e636162756c,rev?*%
%TF.SameCoordinates,Original*%
%TF.FileFunction,Copper,L1,Top*%
%TF.FilePolarity,Positive*%
%FSLAX46Y46*%
G04 Gerber Fmt 4.6, Leading zero omitted, Abs format (unit mm)*
G04 Created by KiCad (PCBNEW 9.0.0) date 2025-03-10 19:20:38*
%MOMM*%
%LPD*%
G01*
G04 APERTURE LIST*
G04 Aperture macros list*
%AMRoundRect*
0 Rectangle with rounded corners*
0 $1 Rounding radius*
0 $2 $3 $4 $5 $6 $7 $8 $9 X,Y pos of 4 corners*
0 Add a 4 corners polygon primitive as box body*
4,1,4,$2,$3,$4,$5,$6,$7,$8,$9,$2,$3,0*
0 Add four circle primitives for the rounded corners*
1,1,$1+$1,$2,$3*
1,1,$1+$1,$4,$5*
1,1,$1+$1,$6,$7*
1,1,$1+$1,$8,$9*
0 Add four rect primitives between the rounded corners*
20,1,$1+$1,$2,$3,$4,$5,0*
20,1,$1+$1,$4,$5,$6,$7,0*
20,1,$1+$1,$6,$7,$8,$9,0*
20,1,$1+$1,$8,$9,$2,$3,0*%
G04 Aperture macros list end*
%TA.AperFunction,ComponentPad*%
%ADD10RoundRect,0.250000X-0.600000X0.600000X-0.600000X-0.600000X0.600000X-0.600000X0.600000X0.600000X0*%
%TD*%
%TA.AperFunction,ComponentPad*%
%ADD11C,1.700000*%
%TD*%
%TA.AperFunction,SMDPad,CuDef*%
%ADD12RoundRect,0.375000X-0.375000X0.625000X-0.375000X-0.625000X0.375000X-0.625000X0.375000X0.625000X0*%
%TD*%
%TA.AperFunction,SMDPad,CuDef*%
%ADD13RoundRect,0.500000X-1.400000X0.500000X-1.400000X-0.500000X1.400000X-0.500000X1.400000X0.500000X0*%
%TD*%
%TA.AperFunction,ComponentPad*%
%ADD14RoundRect,0.250000X-0.620000X-0.845000X0.620000X-0.845000X0.620000X0.845000X-0.620000X0.845000X0*%
%TD*%
%TA.AperFunction,ComponentPad*%
%ADD15O,1.740000X2.190000*%
%TD*%
%TA.AperFunction,SMDPad,CuDef*%
%ADD16RoundRect,0.250000X-0.337500X-0.475000X0.337500X-0.475000X0.337500X0.475000X-0.337500X0.475000X0*%
%TD*%
%TA.AperFunction,SMDPad,CuDef*%
%ADD17RoundRect,0.250000X-0.350000X-0.450000X0.350000X-0.450000X0.350000X0.450000X-0.350000X0.450000X0*%
%TD*%
%TA.AperFunction,SMDPad,CuDef*%
%ADD18RoundRect,0.162500X-0.650000X-0.162500X0.650000X-0.162500X0.650000X0.162500X-0.650000X0.162500X0*%
%TD*%
%TA.AperFunction,SMDPad,CuDef*%
%ADD19RoundRect,0.225000X0.225000X0.375000X-0.225000X0.375000X-0.225000X-0.375000X0.225000X-0.375000X0*%
%TD*%
%TA.AperFunction,ViaPad*%
%ADD20C,0.600000*%
%TD*%
%TA.AperFunction,Conductor*%
%ADD21C,0.508000*%
%TD*%
%TA.AperFunction,Conductor*%
%ADD22C,0.200000*%
%TD*%
G04 APERTURE END LIST*
D10*
%TO.P,J1,1,MISO*%
%TO.N,/MISO*%
X98933000Y-46355000D03*
D11*
%TO.P,J1,2,VCC*%
%TO.N,Net-(D1-A)*%
X98933000Y-48895000D03*
%TO.P,J1,3,SCK*%
%TO.N,/SCK*%
X96393000Y-46355000D03*
%TO.P,J1,4,MOSI*%
%TO.N,/MOSI*%
X96393000Y-48895000D03*
%TO.P,J1,5,~{RST}*%
%TO.N,/RST*%
X93853000Y-46355000D03*
%TO.P,J1,6,GND*%
%TO.N,GND*%
X93853000Y-48895000D03*
%TD*%
D12*
%TO.P,U4,1,GND*%
%TO.N,GND*%
X117616000Y-55397000D03*
%TO.P,U4,2,VO*%
%TO.N,+5V*%
X115316000Y-55397000D03*
D13*
X115316000Y-61697000D03*
D12*
%TO.P,U4,3,VI*%
%TO.N,Net-(J2-Pin_1)*%
X113016000Y-55397000D03*
%TD*%
D14*
%TO.P,J3,1,Pin_1*%
%TO.N,Net-(J3-Pin_1)*%
X79756000Y-58547000D03*
D15*
%TO.P,J3,2,Pin_2*%
%TO.N,GND*%
X82296000Y-58547000D03*
%TD*%
D14*
%TO.P,J5,1,Pin_1*%
%TO.N,+5V*%
X79502000Y-48514000D03*
D15*
%TO.P,J5,2,Pin_2*%
%TO.N,Net-(J5-Pin_2)*%
X82042000Y-48514000D03*
%TO.P,J5,3,Pin_3*%
%TO.N,GND*%
X84582000Y-48514000D03*
%TD*%
D14*
%TO.P,J4,1,Pin_1*%
%TO.N,Net-(J4-Pin_1)*%
X115316000Y-48514000D03*
D15*
%TO.P,J4,2,Pin_2*%
%TO.N,GND*%
X117856000Y-48514000D03*
%TD*%
D16*
%TO.P,C2,1*%
%TO.N,/BUTTON*%
X87894000Y-62992000D03*
%TO.P,C2,2*%
%TO.N,GND*%
X89969000Y-62992000D03*
%TD*%
D14*
%TO.P,J2,1,Pin_1*%
%TO.N,Net-(J2-Pin_1)*%
X107950000Y-48514000D03*
D15*
%TO.P,J2,2,Pin_2*%
%TO.N,GND*%
X110490000Y-48514000D03*
%TD*%
D16*
%TO.P,C1,1*%
%TO.N,+5V*%
X104753500Y-58928000D03*
%TO.P,C1,2*%
%TO.N,GND*%
X106828500Y-58928000D03*
%TD*%
D17*
%TO.P,R2,1*%
%TO.N,Net-(J3-Pin_1)*%
X88027000Y-59563000D03*
%TO.P,R2,2*%
%TO.N,/BUTTON*%
X90027000Y-59563000D03*
%TD*%
%TO.P,R1,1*%
%TO.N,+5V*%
X88027000Y-56063000D03*
%TO.P,R1,2*%
%TO.N,/RST*%
X90027000Y-56063000D03*
%TD*%
%TO.P,R3,1*%
%TO.N,/SCK*%
X104666500Y-62738000D03*
%TO.P,R3,2*%
%TO.N,Net-(J4-Pin_1)*%
X106666500Y-62738000D03*
%TD*%
D18*
%TO.P,U1,1,~{RESET}/PB5*%
%TO.N,/RST*%
X93694500Y-58928000D03*
%TO.P,U1,2,XTAL1/PB3*%
%TO.N,Net-(J5-Pin_2)*%
X93694500Y-60198000D03*
%TO.P,U1,3,XTAL2/PB4*%
%TO.N,/BUTTON*%
X93694500Y-61468000D03*
%TO.P,U1,4,GND*%
%TO.N,GND*%
X93694500Y-62738000D03*
%TO.P,U1,5,AREF/PB0*%
%TO.N,/MOSI*%
X100869500Y-62738000D03*
%TO.P,U1,6,PB1*%
%TO.N,/MISO*%
X100869500Y-61468000D03*
%TO.P,U1,7,PB2*%
%TO.N,/SCK*%
X100869500Y-60198000D03*
%TO.P,U1,8,VCC*%
%TO.N,+5V*%
X100869500Y-58928000D03*
%TD*%
D19*
%TO.P,D1,1,K*%
%TO.N,+5V*%
X106171000Y-54737000D03*
%TO.P,D1,2,A*%
%TO.N,Net-(D1-A)*%
X102871000Y-54737000D03*
%TD*%
D20*
%TO.N,+5V*%
X89734000Y-54356000D03*
X80264000Y-54356000D03*
X100838000Y-56896000D03*
%TO.N,GND*%
X91694000Y-62865000D03*
X84582000Y-58547000D03*
X87122000Y-48514000D03*
X106807000Y-60579000D03*
X117856000Y-43815000D03*
X117602000Y-57531000D03*
%TD*%
D21*
%TO.N,+5V*%
X106171000Y-54737000D02*
X106171000Y-57149000D01*
X104753500Y-58928000D02*
X104753500Y-57679500D01*
X115316000Y-56007000D02*
X114173000Y-57150000D01*
D22*
X80264000Y-54356000D02*
X79502000Y-53594000D01*
X89734000Y-54356000D02*
X88027000Y-56063000D01*
D21*
X114173000Y-57150000D02*
X106172000Y-57150000D01*
X104753500Y-58928000D02*
X100869500Y-58928000D01*
D22*
X79502000Y-53594000D02*
X79502000Y-48514000D01*
X100869500Y-56927500D02*
X100838000Y-56896000D01*
D21*
X115316000Y-55397000D02*
X115316000Y-56007000D01*
D22*
X100869500Y-58928000D02*
X100869500Y-56927500D01*
D21*
X106172000Y-57150000D02*
X105283000Y-57150000D01*
X104753500Y-57679500D02*
X105283000Y-57150000D01*
X106171000Y-57149000D02*
X106172000Y-57150000D01*
D22*
%TO.N,/BUTTON*%
X87894000Y-62992000D02*
X87894000Y-61696000D01*
X91932000Y-61468000D02*
X90027000Y-59563000D01*
X93694500Y-61468000D02*
X91932000Y-61468000D01*
X87894000Y-61696000D02*
X90027000Y-59563000D01*
D21*
%TO.N,Net-(D1-A)*%
X102871000Y-52833000D02*
X98933000Y-48895000D01*
X102871000Y-54737000D02*
X102871000Y-52833000D01*
D22*
%TO.N,/SCK*%
X102616000Y-61132001D02*
X102616000Y-62865000D01*
X104666500Y-62738000D02*
X102743000Y-62738000D01*
X102616000Y-62865000D02*
X101854000Y-63627000D01*
X99568000Y-63627000D02*
X95123000Y-59182000D01*
X95123000Y-47625000D02*
X96393000Y-46355000D01*
X102743000Y-62738000D02*
X102616000Y-62865000D01*
X102616000Y-61132001D02*
X101681999Y-60198000D01*
X101854000Y-63627000D02*
X99568000Y-63627000D01*
X95123000Y-59182000D02*
X95123000Y-47625000D01*
X101681999Y-60198000D02*
X100869500Y-60198000D01*
%TO.N,/MOSI*%
X96393000Y-58801000D02*
X100330000Y-62738000D01*
X96393000Y-48895000D02*
X96393000Y-58801000D01*
X100330000Y-62738000D02*
X100869500Y-62738000D01*
%TO.N,/MISO*%
X97663000Y-58801000D02*
X100330000Y-61468000D01*
X97663000Y-47625000D02*
X97663000Y-58801000D01*
X98933000Y-46355000D02*
X97663000Y-47625000D01*
X100330000Y-61468000D02*
X100869500Y-61468000D01*
%TO.N,/RST*%
X92295000Y-47913000D02*
X92295000Y-57528500D01*
X92313250Y-57546750D02*
X90829500Y-56063000D01*
X93694500Y-58928000D02*
X92313250Y-57546750D01*
X90829500Y-56063000D02*
X90027000Y-56063000D01*
X92295000Y-57528500D02*
X92313250Y-57546750D01*
X93853000Y-46355000D02*
X92295000Y-47913000D01*
D21*
%TO.N,Net-(J2-Pin_1)*%
X107950000Y-48514000D02*
X107950000Y-50331000D01*
X107950000Y-50331000D02*
X113016000Y-55397000D01*
D22*
%TO.N,Net-(J3-Pin_1)*%
X81915000Y-60706000D02*
X86884000Y-60706000D01*
X86884000Y-60706000D02*
X88027000Y-59563000D01*
X79756000Y-58547000D02*
X81915000Y-60706000D01*
%TO.N,Net-(J4-Pin_1)*%
X111379000Y-64135000D02*
X109982000Y-62738000D01*
X115316000Y-48514000D02*
X119888000Y-53086000D01*
X119888000Y-53086000D02*
X119888000Y-62738000D01*
X109982000Y-62738000D02*
X106666500Y-62738000D01*
X119888000Y-62738000D02*
X118491000Y-64135000D01*
X118491000Y-64135000D02*
X111379000Y-64135000D01*
%TO.N,Net-(J5-Pin_2)*%
X93091000Y-60198000D02*
X90551000Y-57658000D01*
X82042000Y-52832000D02*
X82042000Y-48514000D01*
X93694500Y-60198000D02*
X93091000Y-60198000D01*
X90551000Y-57658000D02*
X86868000Y-57658000D01*
X86868000Y-57658000D02*
X82042000Y-52832000D01*
%TD*%
%TA.AperFunction,Conductor*%
%TO.N,GND*%
G36*
X120291039Y-41432685D02*
G01*
X120336794Y-41485489D01*
X120348000Y-41537000D01*
X120348000Y-52397403D01*
X120328315Y-52464442D01*
X120275511Y-52510197D01*
X120206353Y-52520141D01*
X120142797Y-52491116D01*
X120136319Y-52485084D01*
X117960154Y-50308919D01*
X117926669Y-50247596D01*
X117931653Y-50177904D01*
X117973525Y-50121971D01*
X118028438Y-50098765D01*
X118176809Y-50075266D01*
X118381901Y-50008627D01*
X118574036Y-49910728D01*
X118748496Y-49783974D01*
X118748497Y-49783974D01*
X118900974Y-49631497D01*
X118900974Y-49631496D01*
X119027728Y-49457036D01*
X119125627Y-49264901D01*
X119192265Y-49059809D01*
X119226000Y-48846820D01*
X119226000Y-48764000D01*
X118398709Y-48764000D01*
X118410452Y-48743661D01*
X118451000Y-48592333D01*
X118451000Y-48435667D01*
X118410452Y-48284339D01*
X118398709Y-48264000D01*
X119226000Y-48264000D01*
X119226000Y-48181179D01*
X119192265Y-47968190D01*
X119125627Y-47763098D01*
X119027728Y-47570963D01*
X118900974Y-47396503D01*
X118900974Y-47396502D01*
X118748497Y-47244025D01*
X118574036Y-47117271D01*
X118381899Y-47019372D01*
X118176805Y-46952733D01*
X118106000Y-46941518D01*
X118106000Y-47971290D01*
X118085661Y-47959548D01*
X117934333Y-47919000D01*
X117777667Y-47919000D01*
X117626339Y-47959548D01*
X117606000Y-47971290D01*
X117606000Y-46941518D01*
X117605999Y-46941518D01*
X117535194Y-46952733D01*
X117330100Y-47019372D01*
X117137963Y-47117271D01*
X116963506Y-47244022D01*
X116821420Y-47386108D01*
X116760097Y-47419592D01*
X116690405Y-47414608D01*
X116634472Y-47372736D01*
X116621356Y-47350828D01*
X116620816Y-47349670D01*
X116555654Y-47244025D01*
X116528712Y-47200344D01*
X116404656Y-47076288D01*
X116255334Y-46984186D01*
X116088797Y-46929001D01*
X116088795Y-46929000D01*
X115986010Y-46918500D01*
X114645998Y-46918500D01*
X114645981Y-46918501D01*
X114543203Y-46929000D01*
X114543200Y-46929001D01*
X114376668Y-46984185D01*
X114376663Y-46984187D01*
X114227342Y-47076289D01*
X114103289Y-47200342D01*
X114011187Y-47349663D01*
X114011185Y-47349668D01*
X114010960Y-47350348D01*
X113956001Y-47516203D01*
X113956001Y-47516204D01*
X113956000Y-47516204D01*
X113945500Y-47618983D01*
X113945500Y-49409001D01*
X113945501Y-49409018D01*
X113956000Y-49511796D01*
X113956001Y-49511799D01*
X113993584Y-49625216D01*
X114011186Y-49678334D01*
X114103288Y-49827656D01*
X114227344Y-49951712D01*
X114376666Y-50043814D01*
X114543203Y-50098999D01*
X114645991Y-50109500D01*
X115986008Y-50109499D01*
X115996576Y-50108419D01*
X116065268Y-50121187D01*
X116096861Y-50144096D01*
X119251181Y-53298416D01*
X119284666Y-53359739D01*
X119287500Y-53386097D01*
X119287500Y-62437903D01*
X119267815Y-62504942D01*
X119251181Y-62525584D01*
X118278584Y-63498181D01*
X118217261Y-63531666D01*
X118190903Y-63534500D01*
X111679097Y-63534500D01*
X111612058Y-63514815D01*
X111591416Y-63498181D01*
X110469590Y-62376355D01*
X110469588Y-62376352D01*
X110350717Y-62257481D01*
X110350716Y-62257480D01*
X110247115Y-62197666D01*
X110247113Y-62197665D01*
X110213785Y-62178423D01*
X110213784Y-62178422D01*
X110213783Y-62178422D01*
X110157881Y-62163443D01*
X110061057Y-62137499D01*
X109902943Y-62137499D01*
X109895347Y-62137499D01*
X109895331Y-62137500D01*
X107846801Y-62137500D01*
X107779762Y-62117815D01*
X107734007Y-62065011D01*
X107729095Y-62052504D01*
X107727819Y-62048654D01*
X107701314Y-61968666D01*
X107609212Y-61819344D01*
X107485156Y-61695288D01*
X107335834Y-61603186D01*
X107169297Y-61548001D01*
X107169295Y-61548000D01*
X107066510Y-61537500D01*
X106266498Y-61537500D01*
X106266480Y-61537501D01*
X106163703Y-61548000D01*
X106163700Y-61548001D01*
X105997168Y-61603185D01*
X105997163Y-61603187D01*
X105847842Y-61695289D01*
X105754181Y-61788951D01*
X105692858Y-61822436D01*
X105623166Y-61817452D01*
X105578819Y-61788951D01*
X105485157Y-61695289D01*
X105485156Y-61695288D01*
X105335834Y-61603186D01*
X105169297Y-61548001D01*
X105169295Y-61548000D01*
X105066510Y-61537500D01*
X104266498Y-61537500D01*
X104266480Y-61537501D01*
X104163703Y-61548000D01*
X104163700Y-61548001D01*
X103997168Y-61603185D01*
X103997163Y-61603187D01*
X103847842Y-61695289D01*
X103723789Y-61819342D01*
X103631687Y-61968663D01*
X103631686Y-61968666D01*
X103612166Y-62027575D01*
X103603905Y-62052504D01*
X103590034Y-62072536D01*
X103579912Y-62094703D01*
X103570499Y-62100751D01*
X103564132Y-62109949D01*
X103541633Y-62119302D01*
X103521134Y-62132477D01*
X103504032Y-62134935D01*
X103499616Y-62136772D01*
X103486199Y-62137500D01*
X103340500Y-62137500D01*
X103273461Y-62117815D01*
X103227706Y-62065011D01*
X103216500Y-62013500D01*
X103216500Y-61221060D01*
X103216501Y-61221047D01*
X103216501Y-61138966D01*
X112915500Y-61138966D01*
X112915500Y-62255028D01*
X112915500Y-62255033D01*
X112915501Y-62255036D01*
X112917571Y-62278330D01*
X112926113Y-62374415D01*
X112982089Y-62570045D01*
X112982090Y-62570048D01*
X112982091Y-62570049D01*
X113076302Y-62750407D01*
X113076304Y-62750409D01*
X113204890Y-62908109D01*
X113280529Y-62969784D01*
X113362593Y-63036698D01*
X113542951Y-63130909D01*
X113738582Y-63186886D01*
X113857963Y-63197500D01*
X116774036Y-63197499D01*
X116893418Y-63186886D01*
X117089049Y-63130909D01*
X117269407Y-63036698D01*
X117427109Y-62908109D01*
X117555698Y-62750407D01*
X117649909Y-62570049D01*
X117705886Y-62374418D01*
X117716500Y-62255037D01*
X117716499Y-61138964D01*
X117705886Y-61019582D01*
X117656737Y-60847815D01*
X117649910Y-60823954D01*
X117649909Y-60823953D01*
X117649909Y-60823951D01*
X117555698Y-60643593D01*
X117503684Y-60579803D01*
X117427109Y-60485890D01*
X117269409Y-60357304D01*
X117269410Y-60357304D01*
X117269407Y-60357302D01*
X117089049Y-60263091D01*
X117089048Y-60263090D01*
X117089045Y-60263089D01*
X116971829Y-60229550D01*
X116893418Y-60207114D01*
X116893415Y-60207113D01*
X116893413Y-60207113D01*
X116827102Y-60201217D01*
X116774037Y-60196500D01*
X116774032Y-60196500D01*
X113857971Y-60196500D01*
X113857965Y-60196500D01*
X113857964Y-60196501D01*
X113846316Y-60197536D01*
X113738584Y-60207113D01*
X113542954Y-60263089D01*
X113469581Y-60301416D01*
X113362593Y-60357302D01*
X113362591Y-60357303D01*
X113362590Y-60357304D01*
X113204890Y-60485890D01*
X113083633Y-60634602D01*
X113076302Y-60643593D01*
X113072183Y-60651479D01*
X112982089Y-60823954D01*
X112926114Y-61019583D01*
X112926113Y-61019586D01*
X112915500Y-61138966D01*
X103216501Y-61138966D01*
X103216501Y-61052946D01*
X103216501Y-61052944D01*
X103175577Y-60900216D01*
X103116851Y-60798500D01*
X103096520Y-60763285D01*
X102984716Y-60651481D01*
X102984713Y-60651479D01*
X102227415Y-59894181D01*
X102193930Y-59832858D01*
X102198914Y-59763166D01*
X102240786Y-59707233D01*
X102306250Y-59682816D01*
X102315096Y-59682500D01*
X103637409Y-59682500D01*
X103704448Y-59702185D01*
X103742947Y-59741402D01*
X103823288Y-59871656D01*
X103947344Y-59995712D01*
X104096666Y-60087814D01*
X104263203Y-60142999D01*
X104365991Y-60153500D01*
X105141008Y-60153499D01*
X105141016Y-60153498D01*
X105141019Y-60153498D01*
X105197302Y-60147748D01*
X105243797Y-60142999D01*
X105410334Y-60087814D01*
X105559656Y-59995712D01*
X105683712Y-59871656D01*
X105685752Y-59868347D01*
X105687745Y-59866555D01*
X105688193Y-59865989D01*
X105688289Y-59866065D01*
X105737694Y-59821623D01*
X105806656Y-59810395D01*
X105870740Y-59838234D01*
X105896829Y-59868339D01*
X105898681Y-59871341D01*
X105898683Y-59871344D01*
X106022654Y-59995315D01*
X106171875Y-60087356D01*
X106171880Y-60087358D01*
X106338302Y-60142505D01*
X106338309Y-60142506D01*
X106441019Y-60152999D01*
X106578499Y-60152999D01*
X107078500Y-60152999D01*
X107215972Y-60152999D01*
X107215986Y-60152998D01*
X107318697Y-60142505D01*
X107485119Y-60087358D01*
X107485124Y-60087356D01*
X107634345Y-59995315D01*
X107758315Y-59871345D01*
X107850356Y-59722124D01*
X107850358Y-59722119D01*
X107905505Y-59555697D01*
X107905506Y-59555690D01*
X107915999Y-59452986D01*
X107916000Y-59452973D01*
X107916000Y-59178000D01*
X107078500Y-59178000D01*
X107078500Y-60152999D01*
X106578499Y-60152999D01*
X106578500Y-60152998D01*
X106578500Y-59052000D01*
X106598185Y-58984961D01*
X106650989Y-58939206D01*
X106702500Y-58928000D01*
X106828500Y-58928000D01*
X106828500Y-58802000D01*
X106848185Y-58734961D01*
X106900989Y-58689206D01*
X106952500Y-58678000D01*
X107915999Y-58678000D01*
X107915999Y-58403028D01*
X107915998Y-58403013D01*
X107905505Y-58300302D01*
X107850358Y-58133880D01*
X107850356Y-58133875D01*
X107825512Y-58093597D01*
X107807072Y-58026204D01*
X107827995Y-57959541D01*
X107881637Y-57914771D01*
X107931051Y-57904500D01*
X114092554Y-57904500D01*
X114092574Y-57904501D01*
X114098688Y-57904501D01*
X114247314Y-57904501D01*
X114284009Y-57897200D01*
X114368894Y-57880315D01*
X114393080Y-57875505D01*
X114449955Y-57851946D01*
X114530389Y-57818630D01*
X114653966Y-57736059D01*
X115456206Y-56933817D01*
X115517529Y-56900333D01*
X115543887Y-56897499D01*
X115767123Y-56897499D01*
X115767123Y-56897498D01*
X115809889Y-56894600D01*
X115994693Y-56848641D01*
X116165296Y-56764030D01*
X116313722Y-56644722D01*
X116369675Y-56575112D01*
X116427015Y-56535196D01*
X116496837Y-56532616D01*
X116556970Y-56568194D01*
X116562967Y-56575115D01*
X116618632Y-56644366D01*
X116618633Y-56644367D01*
X116766974Y-56763607D01*
X116766977Y-56763609D01*
X116937476Y-56848168D01*
X117122175Y-56894102D01*
X117164903Y-56897000D01*
X117366000Y-56897000D01*
X117866000Y-56897000D01*
X118067097Y-56897000D01*
X118109824Y-56894102D01*
X118294523Y-56848168D01*
X118465022Y-56763609D01*
X118465025Y-56763607D01*
X118613366Y-56644367D01*
X118613367Y-56644366D01*
X118732607Y-56496025D01*
X118732609Y-56496022D01*
X118817168Y-56325523D01*
X118863102Y-56140824D01*
X118866000Y-56098096D01*
X118866000Y-55647000D01*
X117866000Y-55647000D01*
X117866000Y-56897000D01*
X117366000Y-56897000D01*
X117366000Y-55147000D01*
X117866000Y-55147000D01*
X118866000Y-55147000D01*
X118866000Y-54695903D01*
X118863102Y-54653175D01*
X118817168Y-54468476D01*
X118732609Y-54297977D01*
X118732607Y-54297974D01*
X118613367Y-54149633D01*
X118613366Y-54149632D01*
X118465025Y-54030392D01*
X118465022Y-54030390D01*
X118294523Y-53945831D01*
X118109824Y-53899897D01*
X118067097Y-53897000D01*
X117866000Y-53897000D01*
X117866000Y-55147000D01*
X117366000Y-55147000D01*
X117366000Y-53897000D01*
X117164903Y-53897000D01*
X117122175Y-53899897D01*
X116937476Y-53945831D01*
X116766977Y-54030390D01*
X116766974Y-54030392D01*
X116618635Y-54149631D01*
X116562967Y-54218885D01*
X116505624Y-54258803D01*
X116435801Y-54261383D01*
X116375669Y-54225804D01*
X116369673Y-54218884D01*
X116313722Y-54149278D01*
X116313721Y-54149277D01*
X116165295Y-54029969D01*
X116165292Y-54029967D01*
X115994697Y-53945360D01*
X115809892Y-53899400D01*
X115788506Y-53897950D01*
X115767123Y-53896500D01*
X115767120Y-53896500D01*
X114864877Y-53896500D01*
X114864874Y-53896501D01*
X114822113Y-53899399D01*
X114822112Y-53899399D01*
X114637303Y-53945360D01*
X114466707Y-54029967D01*
X114466704Y-54029969D01*
X114318278Y-54149277D01*
X114318277Y-54149278D01*
X114262647Y-54218486D01*
X114205304Y-54258405D01*
X114135482Y-54260985D01*
X114075349Y-54225406D01*
X114069353Y-54218486D01*
X114013722Y-54149278D01*
X114013721Y-54149277D01*
X113865295Y-54029969D01*
X113865292Y-54029967D01*
X113694697Y-53945360D01*
X113509892Y-53899400D01*
X113484229Y-53897660D01*
X113467123Y-53896500D01*
X113467121Y-53896500D01*
X112633887Y-53896500D01*
X112566848Y-53876815D01*
X112546206Y-53860181D01*
X108901577Y-50215552D01*
X108868092Y-50154229D01*
X108873076Y-50084537D01*
X108914948Y-50028604D01*
X108924162Y-50022332D01*
X109038656Y-49951712D01*
X109162712Y-49827656D01*
X109254814Y-49678334D01*
X109254817Y-49678323D01*
X109255353Y-49677177D01*
X109255934Y-49676516D01*
X109258605Y-49672187D01*
X109259344Y-49672643D01*
X109301521Y-49624734D01*
X109368713Y-49605577D01*
X109435596Y-49625788D01*
X109455420Y-49641892D01*
X109597502Y-49783974D01*
X109771963Y-49910728D01*
X109964098Y-50008627D01*
X110169190Y-50075266D01*
X110240000Y-50086481D01*
X110240000Y-49056709D01*
X110260339Y-49068452D01*
X110411667Y-49109000D01*
X110568333Y-49109000D01*
X110719661Y-49068452D01*
X110740000Y-49056709D01*
X110740000Y-50086480D01*
X110810809Y-50075266D01*
X111015901Y-50008627D01*
X111208036Y-49910728D01*
X111382496Y-49783974D01*
X111382497Y-49783974D01*
X111534974Y-49631497D01*
X111534974Y-49631496D01*
X111661728Y-49457036D01*
X111759627Y-49264901D01*
X111826265Y-49059809D01*
X111860000Y-48846820D01*
X111860000Y-48764000D01*
X111032709Y-48764000D01*
X111044452Y-48743661D01*
X111085000Y-48592333D01*
X111085000Y-48435667D01*
X111044452Y-48284339D01*
X111032709Y-48264000D01*
X111860000Y-48264000D01*
X111860000Y-48181179D01*
X111826265Y-47968190D01*
X111759627Y-47763098D01*
X111661728Y-47570963D01*
X111534974Y-47396503D01*
X111534974Y-47396502D01*
X111382497Y-47244025D01*
X111208036Y-47117271D01*
X111015899Y-47019372D01*
X110810805Y-46952733D01*
X110740000Y-46941518D01*
X110740000Y-47971290D01*
X110719661Y-47959548D01*
X110568333Y-47919000D01*
X110411667Y-47919000D01*
X110260339Y-47959548D01*
X110240000Y-47971290D01*
X110240000Y-46941518D01*
X110239999Y-46941518D01*
X110169194Y-46952733D01*
X109964100Y-47019372D01*
X109771963Y-47117271D01*
X109597506Y-47244022D01*
X109455420Y-47386108D01*
X109394097Y-47419592D01*
X109324405Y-47414608D01*
X109268472Y-47372736D01*
X109255356Y-47350828D01*
X109254816Y-47349670D01*
X109189654Y-47244025D01*
X109162712Y-47200344D01*
X109038656Y-47076288D01*
X108889334Y-46984186D01*
X108722797Y-46929001D01*
X108722795Y-46929000D01*
X108620010Y-46918500D01*
X107279998Y-46918500D01*
X107279981Y-46918501D01*
X107177203Y-46929000D01*
X107177200Y-46929001D01*
X107010668Y-46984185D01*
X107010663Y-46984187D01*
X106861342Y-47076289D01*
X106737289Y-47200342D01*
X106645187Y-47349663D01*
X106645185Y-47349668D01*
X106644960Y-47350348D01*
X106590001Y-47516203D01*
X106590001Y-47516204D01*
X106590000Y-47516204D01*
X106579500Y-47618983D01*
X106579500Y-49409001D01*
X106579501Y-49409018D01*
X106590000Y-49511796D01*
X106590001Y-49511799D01*
X106627584Y-49625216D01*
X106645186Y-49678334D01*
X106737288Y-49827656D01*
X106861344Y-49951712D01*
X107010666Y-50043814D01*
X107105582Y-50075266D01*
X107110504Y-50076897D01*
X107130536Y-50090767D01*
X107152703Y-50100890D01*
X107158751Y-50110302D01*
X107167949Y-50116670D01*
X107177302Y-50139168D01*
X107190477Y-50159668D01*
X107192935Y-50176769D01*
X107194772Y-50181186D01*
X107195500Y-50194603D01*
X107195500Y-50251552D01*
X107195499Y-50251578D01*
X107195499Y-50256688D01*
X107195499Y-50405312D01*
X107195499Y-50405314D01*
X107195498Y-50405314D01*
X107224493Y-50551073D01*
X107224496Y-50551083D01*
X107281366Y-50688381D01*
X107281372Y-50688392D01*
X107363942Y-50811968D01*
X107363943Y-50811969D01*
X111729181Y-55177205D01*
X111762666Y-55238528D01*
X111765500Y-55264886D01*
X111765500Y-56098122D01*
X111765501Y-56098125D01*
X111768399Y-56140885D01*
X111768400Y-56140889D01*
X111793439Y-56241575D01*
X111790516Y-56311382D01*
X111750316Y-56368528D01*
X111685602Y-56394869D01*
X111673105Y-56395500D01*
X107049500Y-56395500D01*
X106982461Y-56375815D01*
X106936706Y-56323011D01*
X106925500Y-56271500D01*
X106925500Y-55659874D01*
X106945185Y-55592835D01*
X106961819Y-55572193D01*
X106961994Y-55572018D01*
X106968968Y-55565044D01*
X107058003Y-55420697D01*
X107111349Y-55259708D01*
X107121500Y-55160345D01*
X107121499Y-54313656D01*
X107119897Y-54297977D01*
X107111349Y-54214292D01*
X107111348Y-54214289D01*
X107089923Y-54149632D01*
X107058003Y-54053303D01*
X107057999Y-54053297D01*
X107057998Y-54053294D01*
X106968970Y-53908959D01*
X106968967Y-53908955D01*
X106849044Y-53789032D01*
X106849040Y-53789029D01*
X106704705Y-53700001D01*
X106704699Y-53699998D01*
X106704697Y-53699997D01*
X106623388Y-53673054D01*
X106543709Y-53646651D01*
X106444346Y-53636500D01*
X105897662Y-53636500D01*
X105897644Y-53636501D01*
X105798292Y-53646650D01*
X105798289Y-53646651D01*
X105637305Y-53699996D01*
X105637294Y-53700001D01*
X105492959Y-53789029D01*
X105492955Y-53789032D01*
X105373032Y-53908955D01*
X105373029Y-53908959D01*
X105284001Y-54053294D01*
X105283996Y-54053305D01*
X105230651Y-54214290D01*
X105220500Y-54313647D01*
X105220500Y-55160337D01*
X105220501Y-55160355D01*
X105230650Y-55259707D01*
X105230651Y-55259710D01*
X105283996Y-55420694D01*
X105284001Y-55420705D01*
X105373029Y-55565040D01*
X105373032Y-55565044D01*
X105380181Y-55572193D01*
X105413666Y-55633516D01*
X105416500Y-55659874D01*
X105416500Y-56271499D01*
X105415999Y-56273202D01*
X105416453Y-56274920D01*
X105406191Y-56306604D01*
X105396815Y-56338538D01*
X105395473Y-56339700D01*
X105394926Y-56341391D01*
X105369151Y-56362508D01*
X105344011Y-56384293D01*
X105341816Y-56384904D01*
X105340880Y-56385672D01*
X105334181Y-56387032D01*
X105306754Y-56394677D01*
X105299650Y-56395499D01*
X105208688Y-56395499D01*
X105087105Y-56419684D01*
X105082176Y-56420664D01*
X105082171Y-56420665D01*
X105062922Y-56424494D01*
X105062920Y-56424495D01*
X105022703Y-56441153D01*
X105022701Y-56441153D01*
X104925616Y-56481366D01*
X104925603Y-56481373D01*
X104802034Y-56563940D01*
X104802030Y-56563943D01*
X104167442Y-57198531D01*
X104084872Y-57322107D01*
X104084868Y-57322114D01*
X104065415Y-57369080D01*
X104027995Y-57459417D01*
X104027994Y-57459420D01*
X104025401Y-57472462D01*
X104025400Y-57472465D01*
X103998999Y-57605185D01*
X103998999Y-57759411D01*
X103979314Y-57826450D01*
X103951914Y-57856674D01*
X103947344Y-57860287D01*
X103823289Y-57984342D01*
X103823288Y-57984344D01*
X103746667Y-58108568D01*
X103742948Y-58114597D01*
X103691000Y-58161321D01*
X103637409Y-58173500D01*
X101856342Y-58173500D01*
X101801093Y-58158098D01*
X101800441Y-58159547D01*
X101793606Y-58156471D01*
X101793604Y-58156470D01*
X101793602Y-58156469D01*
X101639887Y-58108570D01*
X101607130Y-58105593D01*
X101582777Y-58103380D01*
X101517794Y-58077709D01*
X101477006Y-58020980D01*
X101470000Y-57979889D01*
X101470000Y-57428622D01*
X101489685Y-57361583D01*
X101490898Y-57359731D01*
X101516035Y-57322111D01*
X101547394Y-57275179D01*
X101607737Y-57129497D01*
X101638500Y-56974842D01*
X101638500Y-56817158D01*
X101638500Y-56817155D01*
X101638499Y-56817153D01*
X101607737Y-56662503D01*
X101600225Y-56644367D01*
X101547397Y-56516827D01*
X101547390Y-56516814D01*
X101459789Y-56385711D01*
X101459786Y-56385707D01*
X101348292Y-56274213D01*
X101348288Y-56274210D01*
X101217185Y-56186609D01*
X101217172Y-56186602D01*
X101071501Y-56126264D01*
X101071489Y-56126261D01*
X100916845Y-56095500D01*
X100916842Y-56095500D01*
X100759158Y-56095500D01*
X100759155Y-56095500D01*
X100604510Y-56126261D01*
X100604498Y-56126264D01*
X100458827Y-56186602D01*
X100458814Y-56186609D01*
X100327711Y-56274210D01*
X100327707Y-56274213D01*
X100216213Y-56385707D01*
X100216210Y-56385711D01*
X100128609Y-56516814D01*
X100128602Y-56516827D01*
X100068264Y-56662498D01*
X100068261Y-56662510D01*
X100037500Y-56817153D01*
X100037500Y-56974846D01*
X100068261Y-57129489D01*
X100068264Y-57129501D01*
X100128602Y-57275172D01*
X100128609Y-57275185D01*
X100216210Y-57406288D01*
X100216212Y-57406291D01*
X100232679Y-57422757D01*
X100266166Y-57484079D01*
X100269000Y-57510440D01*
X100269000Y-57979889D01*
X100249315Y-58046928D01*
X100196511Y-58092683D01*
X100156221Y-58103380D01*
X100099116Y-58108568D01*
X100099106Y-58108571D01*
X99945401Y-58156467D01*
X99807608Y-58239766D01*
X99693766Y-58353608D01*
X99610469Y-58491397D01*
X99562569Y-58645116D01*
X99556500Y-58711911D01*
X99556500Y-59144098D01*
X99562568Y-59210882D01*
X99562571Y-59210893D01*
X99610467Y-59364599D01*
X99691625Y-59498850D01*
X99695321Y-59512850D01*
X99703481Y-59524812D01*
X99704061Y-59545954D01*
X99709461Y-59566405D01*
X99705036Y-59581472D01*
X99705399Y-59594655D01*
X99691625Y-59627150D01*
X99640419Y-59711854D01*
X99588891Y-59759042D01*
X99520031Y-59770880D01*
X99455703Y-59743611D01*
X99446621Y-59735385D01*
X98299819Y-58588583D01*
X98266334Y-58527260D01*
X98263500Y-58500902D01*
X98263500Y-50268136D01*
X98283185Y-50201097D01*
X98335989Y-50155342D01*
X98405147Y-50145398D01*
X98425806Y-50150202D01*
X98616757Y-50212246D01*
X98826713Y-50245500D01*
X98826714Y-50245500D01*
X99039285Y-50245500D01*
X99039287Y-50245500D01*
X99129846Y-50231156D01*
X99199136Y-50240110D01*
X99236923Y-50265948D01*
X102080181Y-53109206D01*
X102113666Y-53170529D01*
X102116500Y-53196887D01*
X102116500Y-53814126D01*
X102096815Y-53881165D01*
X102080181Y-53901807D01*
X102073032Y-53908955D01*
X102073029Y-53908959D01*
X101984001Y-54053294D01*
X101983996Y-54053305D01*
X101930651Y-54214290D01*
X101920500Y-54313647D01*
X101920500Y-55160337D01*
X101920501Y-55160355D01*
X101930650Y-55259707D01*
X101930651Y-55259710D01*
X101983996Y-55420694D01*
X101984001Y-55420705D01*
X102073029Y-55565040D01*
X102073032Y-55565044D01*
X102192955Y-55684967D01*
X102192959Y-55684970D01*
X102337294Y-55773998D01*
X102337297Y-55773999D01*
X102337303Y-55774003D01*
X102498292Y-55827349D01*
X102597655Y-55837500D01*
X103144344Y-55837499D01*
X103144352Y-55837498D01*
X103144355Y-55837498D01*
X103198760Y-55831940D01*
X103243708Y-55827349D01*
X103404697Y-55774003D01*
X103549044Y-55684968D01*
X103668968Y-55565044D01*
X103758003Y-55420697D01*
X103811349Y-55259708D01*
X103821500Y-55160345D01*
X103821499Y-54313656D01*
X103819897Y-54297977D01*
X103811349Y-54214292D01*
X103811348Y-54214289D01*
X103789923Y-54149632D01*
X103758003Y-54053303D01*
X103757999Y-54053297D01*
X103757998Y-54053294D01*
X103668970Y-53908959D01*
X103668967Y-53908955D01*
X103661819Y-53901807D01*
X103628334Y-53840484D01*
X103625500Y-53814126D01*
X103625500Y-52913446D01*
X103625501Y-52913425D01*
X103625501Y-52758685D01*
X103596506Y-52612926D01*
X103596505Y-52612925D01*
X103596505Y-52612921D01*
X103539630Y-52475611D01*
X103457059Y-52352034D01*
X103457057Y-52352031D01*
X103457056Y-52352030D01*
X100303948Y-49198923D01*
X100270463Y-49137600D01*
X100269156Y-49091849D01*
X100283500Y-49001287D01*
X100283500Y-48788713D01*
X100250246Y-48578757D01*
X100184557Y-48376588D01*
X100088051Y-48187184D01*
X100088049Y-48187181D01*
X100088048Y-48187179D01*
X99963109Y-48015213D01*
X99812790Y-47864894D01*
X99812785Y-47864890D01*
X99807891Y-47861334D01*
X99765227Y-47806003D01*
X99759249Y-47736390D01*
X99791857Y-47674595D01*
X99841774Y-47643312D01*
X99852334Y-47639814D01*
X100001656Y-47547712D01*
X100125712Y-47423656D01*
X100217814Y-47274334D01*
X100272999Y-47107797D01*
X100283500Y-47005009D01*
X100283499Y-45704992D01*
X100272999Y-45602203D01*
X100217814Y-45435666D01*
X100125712Y-45286344D01*
X100001656Y-45162288D01*
X99852334Y-45070186D01*
X99685797Y-45015001D01*
X99685795Y-45015000D01*
X99583010Y-45004500D01*
X98282998Y-45004500D01*
X98282981Y-45004501D01*
X98180203Y-45015000D01*
X98180200Y-45015001D01*
X98013668Y-45070185D01*
X98013663Y-45070187D01*
X97864342Y-45162289D01*
X97740289Y-45286342D01*
X97648187Y-45435663D01*
X97648183Y-45435673D01*
X97644685Y-45446229D01*
X97604910Y-45503672D01*
X97540393Y-45530493D01*
X97471618Y-45518174D01*
X97426663Y-45480106D01*
X97423105Y-45475209D01*
X97272786Y-45324890D01*
X97100820Y-45199951D01*
X96911414Y-45103444D01*
X96911413Y-45103443D01*
X96911412Y-45103443D01*
X96709243Y-45037754D01*
X96709241Y-45037753D01*
X96709240Y-45037753D01*
X96547957Y-45012208D01*
X96499287Y-45004500D01*
X96286713Y-45004500D01*
X96238042Y-45012208D01*
X96076760Y-45037753D01*
X95874585Y-45103444D01*
X95685179Y-45199951D01*
X95513213Y-45324890D01*
X95362890Y-45475213D01*
X95237949Y-45647182D01*
X95233484Y-45655946D01*
X95185509Y-45706742D01*
X95117688Y-45723536D01*
X95051553Y-45700998D01*
X95012516Y-45655946D01*
X95008050Y-45647182D01*
X94883109Y-45475213D01*
X94732786Y-45324890D01*
X94560820Y-45199951D01*
X94371414Y-45103444D01*
X94371413Y-45103443D01*
X94371412Y-45103443D01*
X94169243Y-45037754D01*
X94169241Y-45037753D01*
X94169240Y-45037753D01*
X94007957Y-45012208D01*
X93959287Y-45004500D01*
X93746713Y-45004500D01*
X93698042Y-45012208D01*
X93536760Y-45037753D01*
X93334585Y-45103444D01*
X93145179Y-45199951D01*
X92973213Y-45324890D01*
X92822890Y-45475213D01*
X92697951Y-45647179D01*
X92601444Y-45836585D01*
X92535753Y-46038760D01*
X92502500Y-46248713D01*
X92502500Y-46461286D01*
X92535754Y-46671244D01*
X92535754Y-46671247D01*
X92549491Y-46713523D01*
X92551486Y-46783364D01*
X92519241Y-46839522D01*
X91926286Y-47432478D01*
X91814481Y-47544282D01*
X91814479Y-47544285D01*
X91800949Y-47567720D01*
X91778527Y-47606557D01*
X91735423Y-47681215D01*
X91694499Y-47833943D01*
X91694499Y-47833945D01*
X91694499Y-48002046D01*
X91694500Y-48002059D01*
X91694500Y-55779403D01*
X91688261Y-55800648D01*
X91686682Y-55822737D01*
X91678609Y-55833520D01*
X91674815Y-55846442D01*
X91658081Y-55860941D01*
X91644810Y-55878670D01*
X91632189Y-55883377D01*
X91622011Y-55892197D01*
X91600093Y-55895348D01*
X91579346Y-55903087D01*
X91566185Y-55900224D01*
X91552853Y-55902141D01*
X91532709Y-55892941D01*
X91511073Y-55888235D01*
X91493347Y-55874966D01*
X91489297Y-55873116D01*
X91482819Y-55867084D01*
X91317090Y-55701355D01*
X91317088Y-55701352D01*
X91198217Y-55582481D01*
X91198212Y-55582477D01*
X91180096Y-55572018D01*
X91131880Y-55521451D01*
X91118738Y-55477229D01*
X91116999Y-55460204D01*
X91116998Y-55460200D01*
X91061814Y-55293666D01*
X90969712Y-55144344D01*
X90845656Y-55020288D01*
X90696334Y-54928186D01*
X90530215Y-54873139D01*
X90472771Y-54833367D01*
X90445948Y-54768851D01*
X90454658Y-54707983D01*
X90503737Y-54589497D01*
X90534500Y-54434842D01*
X90534500Y-54277158D01*
X90534500Y-54277155D01*
X90534499Y-54277153D01*
X90522909Y-54218885D01*
X90503737Y-54122503D01*
X90503735Y-54122498D01*
X90443397Y-53976827D01*
X90443390Y-53976814D01*
X90355789Y-53845711D01*
X90355786Y-53845707D01*
X90244292Y-53734213D01*
X90244288Y-53734210D01*
X90113185Y-53646609D01*
X90113172Y-53646602D01*
X89967501Y-53586264D01*
X89967489Y-53586261D01*
X89812845Y-53555500D01*
X89812842Y-53555500D01*
X89655158Y-53555500D01*
X89655155Y-53555500D01*
X89500510Y-53586261D01*
X89500498Y-53586264D01*
X89354827Y-53646602D01*
X89354814Y-53646609D01*
X89223711Y-53734210D01*
X89223707Y-53734213D01*
X89112213Y-53845707D01*
X89112210Y-53845711D01*
X89024609Y-53976814D01*
X89024602Y-53976827D01*
X88964264Y-54122498D01*
X88964261Y-54122508D01*
X88933362Y-54277848D01*
X88900977Y-54339759D01*
X88899426Y-54341337D01*
X88414582Y-54826181D01*
X88353259Y-54859666D01*
X88326901Y-54862500D01*
X87626998Y-54862500D01*
X87626980Y-54862501D01*
X87524203Y-54873000D01*
X87524200Y-54873001D01*
X87357668Y-54928185D01*
X87357663Y-54928187D01*
X87208342Y-55020289D01*
X87084289Y-55144342D01*
X86992187Y-55293663D01*
X86992186Y-55293666D01*
X86937001Y-55460203D01*
X86937001Y-55460204D01*
X86937000Y-55460204D01*
X86926500Y-55562983D01*
X86926500Y-55562996D01*
X86926501Y-56566165D01*
X86925367Y-56566165D01*
X86910176Y-56629658D01*
X86859761Y-56678032D01*
X86791196Y-56691471D01*
X86726250Y-56665707D01*
X86714913Y-56655677D01*
X82678819Y-52619583D01*
X82645334Y-52558260D01*
X82642500Y-52531902D01*
X82642500Y-50047165D01*
X82662185Y-49980126D01*
X82710204Y-49936680D01*
X82760299Y-49911157D01*
X82934821Y-49784359D01*
X83087359Y-49631821D01*
X83211991Y-49460279D01*
X83267321Y-49417614D01*
X83336934Y-49411635D01*
X83398729Y-49444241D01*
X83412627Y-49460279D01*
X83537025Y-49631496D01*
X83537025Y-49631497D01*
X83689502Y-49783974D01*
X83863963Y-49910728D01*
X84056098Y-50008627D01*
X84261190Y-50075266D01*
X84332000Y-50086481D01*
X84332000Y-49056709D01*
X84352339Y-49068452D01*
X84503667Y-49109000D01*
X84660333Y-49109000D01*
X84811661Y-49068452D01*
X84832000Y-49056709D01*
X84832000Y-50086480D01*
X84902809Y-50075266D01*
X85107901Y-50008627D01*
X85300036Y-49910728D01*
X85474496Y-49783974D01*
X85474497Y-49783974D01*
X85626974Y-49631497D01*
X85626974Y-49631496D01*
X85753728Y-49457036D01*
X85851627Y-49264901D01*
X85918265Y-49059809D01*
X85952000Y-48846820D01*
X85952000Y-48764000D01*
X85124709Y-48764000D01*
X85136452Y-48743661D01*
X85177000Y-48592333D01*
X85177000Y-48435667D01*
X85136452Y-48284339D01*
X85124709Y-48264000D01*
X85952000Y-48264000D01*
X85952000Y-48181179D01*
X85918265Y-47968190D01*
X85851627Y-47763098D01*
X85753728Y-47570963D01*
X85626974Y-47396503D01*
X85626974Y-47396502D01*
X85474497Y-47244025D01*
X85300036Y-47117271D01*
X85107899Y-47019372D01*
X84902805Y-46952733D01*
X84832000Y-46941518D01*
X84832000Y-47971290D01*
X84811661Y-47959548D01*
X84660333Y-47919000D01*
X84503667Y-47919000D01*
X84352339Y-47959548D01*
X84332000Y-47971290D01*
X84332000Y-46941518D01*
X84331999Y-46941518D01*
X84261194Y-46952733D01*
X84056100Y-47019372D01*
X83863963Y-47117271D01*
X83689503Y-47244025D01*
X83689502Y-47244025D01*
X83537024Y-47396503D01*
X83412627Y-47567720D01*
X83357296Y-47610385D01*
X83287683Y-47616364D01*
X83225888Y-47583758D01*
X83211991Y-47567720D01*
X83196169Y-47545943D01*
X83087359Y-47396179D01*
X82934821Y-47243641D01*
X82760299Y-47116843D01*
X82568089Y-47018908D01*
X82362926Y-46952246D01*
X82362924Y-46952245D01*
X82362922Y-46952245D01*
X82149866Y-46918500D01*
X82149861Y-46918500D01*
X81934139Y-46918500D01*
X81934134Y-46918500D01*
X81721077Y-46952245D01*
X81515908Y-47018909D01*
X81323700Y-47116843D01*
X81149180Y-47243640D01*
X81007195Y-47385625D01*
X80945872Y-47419109D01*
X80876180Y-47414125D01*
X80820247Y-47372253D01*
X80807132Y-47350348D01*
X80806815Y-47349669D01*
X80806814Y-47349668D01*
X80806814Y-47349666D01*
X80714712Y-47200344D01*
X80590656Y-47076288D01*
X80441334Y-46984186D01*
X80274797Y-46929001D01*
X80274795Y-46929000D01*
X80172010Y-46918500D01*
X78831998Y-46918500D01*
X78831981Y-46918501D01*
X78729203Y-46929000D01*
X78729200Y-46929001D01*
X78562668Y-46984185D01*
X78562663Y-46984187D01*
X78413342Y-47076289D01*
X78289289Y-47200342D01*
X78197187Y-47349663D01*
X78197185Y-47349668D01*
X78196960Y-47350348D01*
X78142001Y-47516203D01*
X78142001Y-47516204D01*
X78142000Y-47516204D01*
X78131500Y-47618983D01*
X78131500Y-49409001D01*
X78131501Y-49409018D01*
X78142000Y-49511796D01*
X78142001Y-49511799D01*
X78179584Y-49625216D01*
X78197186Y-49678334D01*
X78289288Y-49827656D01*
X78413344Y-49951712D01*
X78562666Y-50043814D01*
X78729203Y-50098999D01*
X78790102Y-50105220D01*
X78854793Y-50131615D01*
X78894945Y-50188796D01*
X78901500Y-50228578D01*
X78901500Y-53507330D01*
X78901499Y-53507348D01*
X78901499Y-53673054D01*
X78901498Y-53673054D01*
X78942423Y-53825786D01*
X78956820Y-53850720D01*
X78956821Y-53850725D01*
X78956823Y-53850725D01*
X78990442Y-53908956D01*
X79021479Y-53962714D01*
X79021481Y-53962717D01*
X79140349Y-54081585D01*
X79140355Y-54081590D01*
X79429425Y-54370660D01*
X79462910Y-54431983D01*
X79463361Y-54434149D01*
X79494261Y-54589491D01*
X79494264Y-54589501D01*
X79554602Y-54735172D01*
X79554609Y-54735185D01*
X79642210Y-54866288D01*
X79642213Y-54866292D01*
X79753707Y-54977786D01*
X79753711Y-54977789D01*
X79884814Y-55065390D01*
X79884827Y-55065397D01*
X80030498Y-55125735D01*
X80030503Y-55125737D01*
X80137399Y-55147000D01*
X80185153Y-55156499D01*
X80185156Y-55156500D01*
X80185158Y-55156500D01*
X80342844Y-55156500D01*
X80342845Y-55156499D01*
X80497497Y-55125737D01*
X80643179Y-55065394D01*
X80774289Y-54977789D01*
X80885789Y-54866289D01*
X80973394Y-54735179D01*
X81033737Y-54589497D01*
X81064500Y-54434842D01*
X81064500Y-54277158D01*
X81064500Y-54277155D01*
X81064499Y-54277153D01*
X81052909Y-54218885D01*
X81033737Y-54122503D01*
X81033735Y-54122498D01*
X80973397Y-53976827D01*
X80973390Y-53976814D01*
X80885789Y-53845711D01*
X80885786Y-53845707D01*
X80774292Y-53734213D01*
X80774288Y-53734210D01*
X80643185Y-53646609D01*
X80643172Y-53646602D01*
X80497501Y-53586264D01*
X80497491Y-53586261D01*
X80342151Y-53555362D01*
X80325394Y-53546596D01*
X80306916Y-53542577D01*
X80281877Y-53523832D01*
X80280241Y-53522977D01*
X80278662Y-53521426D01*
X80138819Y-53381583D01*
X80105334Y-53320260D01*
X80102500Y-53293902D01*
X80102500Y-50228577D01*
X80122185Y-50161538D01*
X80174989Y-50115783D01*
X80213895Y-50105220D01*
X80274797Y-50098999D01*
X80441334Y-50043814D01*
X80590656Y-49951712D01*
X80714712Y-49827656D01*
X80806814Y-49678334D01*
X80806817Y-49678322D01*
X80807129Y-49677657D01*
X80807469Y-49677269D01*
X80810605Y-49672187D01*
X80811473Y-49672722D01*
X80853299Y-49625216D01*
X80920491Y-49606060D01*
X80987373Y-49626272D01*
X81007195Y-49642375D01*
X81149179Y-49784359D01*
X81323701Y-49911157D01*
X81373794Y-49936680D01*
X81424590Y-49984654D01*
X81441500Y-50047165D01*
X81441500Y-52745330D01*
X81441499Y-52745348D01*
X81441499Y-52911054D01*
X81441498Y-52911054D01*
X81442139Y-52913446D01*
X81482423Y-53063785D01*
X81511115Y-53113481D01*
X81561477Y-53200712D01*
X81561481Y-53200717D01*
X81680349Y-53319585D01*
X81680354Y-53319589D01*
X86499284Y-58138520D01*
X86499286Y-58138521D01*
X86499290Y-58138524D01*
X86630330Y-58214179D01*
X86636216Y-58217577D01*
X86788943Y-58258501D01*
X86788945Y-58258501D01*
X86954654Y-58258501D01*
X86954670Y-58258500D01*
X87195532Y-58258500D01*
X87262571Y-58278185D01*
X87308326Y-58330989D01*
X87318270Y-58400147D01*
X87289245Y-58463703D01*
X87260630Y-58488037D01*
X87239774Y-58500902D01*
X87208342Y-58520289D01*
X87084289Y-58644342D01*
X86992187Y-58793663D01*
X86992186Y-58793666D01*
X86937001Y-58960203D01*
X86937001Y-58960204D01*
X86937000Y-58960204D01*
X86926500Y-59062983D01*
X86926500Y-59762902D01*
X86906815Y-59829941D01*
X86890181Y-59850583D01*
X86671584Y-60069181D01*
X86610261Y-60102666D01*
X86583903Y-60105500D01*
X83173010Y-60105500D01*
X83105971Y-60085815D01*
X83060216Y-60033011D01*
X83050272Y-59963853D01*
X83079297Y-59900297D01*
X83100124Y-59881182D01*
X83188496Y-59816974D01*
X83188497Y-59816974D01*
X83340974Y-59664497D01*
X83340974Y-59664496D01*
X83467728Y-59490036D01*
X83565627Y-59297901D01*
X83632265Y-59092809D01*
X83666000Y-58879820D01*
X83666000Y-58797000D01*
X82838709Y-58797000D01*
X82850452Y-58776661D01*
X82891000Y-58625333D01*
X82891000Y-58468667D01*
X82850452Y-58317339D01*
X82838709Y-58297000D01*
X83666000Y-58297000D01*
X83666000Y-58214179D01*
X83632265Y-58001190D01*
X83565627Y-57796098D01*
X83467728Y-57603963D01*
X83340974Y-57429503D01*
X83340974Y-57429502D01*
X83188497Y-57277025D01*
X83014036Y-57150271D01*
X82821899Y-57052372D01*
X82616805Y-56985733D01*
X82546000Y-56974518D01*
X82546000Y-58004290D01*
X82525661Y-57992548D01*
X82374333Y-57952000D01*
X82217667Y-57952000D01*
X82066339Y-57992548D01*
X82046000Y-58004290D01*
X82046000Y-56974518D01*
X82045999Y-56974518D01*
X81975194Y-56985733D01*
X81770100Y-57052372D01*
X81577963Y-57150271D01*
X81403506Y-57277022D01*
X81261420Y-57419108D01*
X81200097Y-57452592D01*
X81130405Y-57447608D01*
X81074472Y-57405736D01*
X81061356Y-57383828D01*
X81060816Y-57382670D01*
X81052434Y-57369080D01*
X80968712Y-57233344D01*
X80844656Y-57109288D01*
X80695334Y-57017186D01*
X80528797Y-56962001D01*
X80528795Y-56962000D01*
X80426010Y-56951500D01*
X79085998Y-56951500D01*
X79085981Y-56951501D01*
X78983203Y-56962000D01*
X78983200Y-56962001D01*
X78816668Y-57017185D01*
X78816663Y-57017187D01*
X78667342Y-57109289D01*
X78543289Y-57233342D01*
X78451187Y-57382663D01*
X78451185Y-57382668D01*
X78425753Y-57459417D01*
X78396001Y-57549203D01*
X78396001Y-57549204D01*
X78396000Y-57549204D01*
X78385500Y-57651983D01*
X78385500Y-59442001D01*
X78385501Y-59442018D01*
X78396000Y-59544796D01*
X78396001Y-59544799D01*
X78451185Y-59711331D01*
X78451187Y-59711336D01*
X78471094Y-59743611D01*
X78543288Y-59860656D01*
X78667344Y-59984712D01*
X78816666Y-60076814D01*
X78983203Y-60131999D01*
X79085991Y-60142500D01*
X80426008Y-60142499D01*
X80436576Y-60141419D01*
X80505268Y-60154187D01*
X80536861Y-60177096D01*
X81430139Y-61070374D01*
X81430149Y-61070385D01*
X81434479Y-61074715D01*
X81434480Y-61074716D01*
X81546284Y-61186520D01*
X81555476Y-61191827D01*
X81596445Y-61215480D01*
X81596444Y-61215480D01*
X81596447Y-61215481D01*
X81683209Y-61265574D01*
X81683210Y-61265574D01*
X81683215Y-61265577D01*
X81835943Y-61306500D01*
X81994057Y-61306500D01*
X86797331Y-61306500D01*
X86797347Y-61306501D01*
X86804943Y-61306501D01*
X86963054Y-61306501D01*
X86963057Y-61306501D01*
X87115785Y-61265577D01*
X87202555Y-61215480D01*
X87215002Y-61208293D01*
X87248669Y-61200129D01*
X87282891Y-61191826D01*
X87282897Y-61191828D01*
X87282902Y-61191827D01*
X87312106Y-61201936D01*
X87348918Y-61214677D01*
X87348921Y-61214681D01*
X87348928Y-61214684D01*
X87370152Y-61241677D01*
X87392110Y-61269597D01*
X87392110Y-61269603D01*
X87392114Y-61269608D01*
X87394910Y-61298914D01*
X87398753Y-61339151D01*
X87398749Y-61339159D01*
X87398750Y-61339162D01*
X87398746Y-61339169D01*
X87384381Y-61377684D01*
X87363361Y-61414093D01*
X87363359Y-61414096D01*
X87334425Y-61464209D01*
X87334424Y-61464210D01*
X87334423Y-61464215D01*
X87293499Y-61616943D01*
X87293499Y-61616945D01*
X87293499Y-61728232D01*
X87273814Y-61795271D01*
X87234596Y-61833771D01*
X87087842Y-61924289D01*
X86963789Y-62048342D01*
X86871687Y-62197663D01*
X86871687Y-62197664D01*
X86871686Y-62197666D01*
X86816501Y-62364203D01*
X86816501Y-62364204D01*
X86816500Y-62364204D01*
X86806000Y-62466983D01*
X86806000Y-63517001D01*
X86806001Y-63517019D01*
X86816500Y-63619796D01*
X86816501Y-63619799D01*
X86838786Y-63687049D01*
X86871686Y-63786334D01*
X86963788Y-63935656D01*
X87087844Y-64059712D01*
X87237166Y-64151814D01*
X87403703Y-64206999D01*
X87506491Y-64217500D01*
X88281508Y-64217499D01*
X88281516Y-64217498D01*
X88281519Y-64217498D01*
X88337802Y-64211748D01*
X88384297Y-64206999D01*
X88550834Y-64151814D01*
X88700156Y-64059712D01*
X88824212Y-63935656D01*
X88826252Y-63932347D01*
X88828245Y-63930555D01*
X88828693Y-63929989D01*
X88828789Y-63930065D01*
X88878194Y-63885623D01*
X88947156Y-63874395D01*
X89011240Y-63902234D01*
X89037329Y-63932339D01*
X89039181Y-63935341D01*
X89039183Y-63935344D01*
X89163154Y-64059315D01*
X89312375Y-64151356D01*
X89312380Y-64151358D01*
X89478802Y-64206505D01*
X89478809Y-64206506D01*
X89581519Y-64216999D01*
X89718999Y-64216999D01*
X90219000Y-64216999D01*
X90356472Y-64216999D01*
X90356486Y-64216998D01*
X90459197Y-64206505D01*
X90625619Y-64151358D01*
X90625624Y-64151356D01*
X90774845Y-64059315D01*
X90898815Y-63935345D01*
X90990856Y-63786124D01*
X90990858Y-63786119D01*
X91046005Y-63619697D01*
X91046006Y-63619690D01*
X91056499Y-63516986D01*
X91056500Y-63516973D01*
X91056500Y-63242000D01*
X90219000Y-63242000D01*
X90219000Y-64216999D01*
X89718999Y-64216999D01*
X89719000Y-64216998D01*
X89719000Y-62988000D01*
X92385085Y-62988000D01*
X92388064Y-63020792D01*
X92388067Y-63020802D01*
X92435927Y-63174392D01*
X92519163Y-63312080D01*
X92632919Y-63425836D01*
X92770603Y-63509070D01*
X92924207Y-63556934D01*
X92990957Y-63563000D01*
X93444500Y-63563000D01*
X93944500Y-63563000D01*
X94398043Y-63563000D01*
X94464792Y-63556934D01*
X94618396Y-63509070D01*
X94756080Y-63425836D01*
X94869836Y-63312080D01*
X94953072Y-63174392D01*
X95000932Y-63020802D01*
X95000935Y-63020792D01*
X95003914Y-62988000D01*
X93944500Y-62988000D01*
X93944500Y-63563000D01*
X93444500Y-63563000D01*
X93444500Y-62988000D01*
X92385085Y-62988000D01*
X89719000Y-62988000D01*
X89719000Y-62742000D01*
X90219000Y-62742000D01*
X91056499Y-62742000D01*
X91056499Y-62467028D01*
X91056498Y-62467013D01*
X91046005Y-62364302D01*
X90990858Y-62197880D01*
X90990856Y-62197875D01*
X90898815Y-62048654D01*
X90774845Y-61924684D01*
X90625624Y-61832643D01*
X90625619Y-61832641D01*
X90459197Y-61777494D01*
X90459190Y-61777493D01*
X90356486Y-61767000D01*
X90219000Y-61767000D01*
X90219000Y-62742000D01*
X89719000Y-62742000D01*
X89719000Y-61767000D01*
X89581527Y-61767000D01*
X89581512Y-61767001D01*
X89478802Y-61777494D01*
X89312380Y-61832641D01*
X89312375Y-61832643D01*
X89163154Y-61924684D01*
X89039183Y-62048655D01*
X89039179Y-62048660D01*
X89037326Y-62051665D01*
X89035518Y-62053290D01*
X89034702Y-62054323D01*
X89034525Y-62054183D01*
X88985374Y-62098385D01*
X88916411Y-62109601D01*
X88852331Y-62081752D01*
X88842398Y-62072493D01*
X88833214Y-62062939D01*
X88824212Y-62048344D01*
X88700156Y-61924288D01*
X88699602Y-61923946D01*
X88693518Y-61917617D01*
X88677910Y-61887641D01*
X88661747Y-61858041D01*
X88661837Y-61856773D01*
X88661250Y-61855645D01*
X88664323Y-61822019D01*
X88666731Y-61788349D01*
X88667511Y-61787135D01*
X88667609Y-61786065D01*
X88670962Y-61781764D01*
X88695232Y-61744002D01*
X89639416Y-60799818D01*
X89700739Y-60766333D01*
X89727097Y-60763499D01*
X90326902Y-60763499D01*
X90393941Y-60783184D01*
X90414583Y-60799818D01*
X91447139Y-61832374D01*
X91447149Y-61832385D01*
X91451479Y-61836715D01*
X91451480Y-61836716D01*
X91563284Y-61948520D01*
X91650095Y-61998639D01*
X91650097Y-61998641D01*
X91688151Y-62020611D01*
X91700215Y-62027577D01*
X91852943Y-62068501D01*
X91852946Y-62068501D01*
X92018653Y-62068501D01*
X92018669Y-62068500D01*
X92356988Y-62068500D01*
X92424027Y-62088185D01*
X92469782Y-62140989D01*
X92479726Y-62210147D01*
X92463105Y-62256650D01*
X92435927Y-62301606D01*
X92388067Y-62455197D01*
X92388064Y-62455207D01*
X92385085Y-62487999D01*
X92385085Y-62488000D01*
X95003915Y-62488000D01*
X95003914Y-62487999D01*
X95000935Y-62455207D01*
X95000932Y-62455197D01*
X94953072Y-62301606D01*
X94953071Y-62301604D01*
X94872082Y-62167634D01*
X94854245Y-62100079D01*
X94872080Y-62039336D01*
X94953531Y-61904602D01*
X95001430Y-61750887D01*
X95007500Y-61684091D01*
X95007499Y-61251910D01*
X95007499Y-61251901D01*
X95001431Y-61185117D01*
X95001428Y-61185106D01*
X94953532Y-61031401D01*
X94953531Y-61031400D01*
X94953531Y-61031398D01*
X94872373Y-60897147D01*
X94854538Y-60829596D01*
X94872373Y-60768852D01*
X94953531Y-60634602D01*
X95001430Y-60480887D01*
X95007500Y-60414091D01*
X95007499Y-60215095D01*
X95027183Y-60148057D01*
X95079987Y-60102302D01*
X95149145Y-60092358D01*
X95212701Y-60121383D01*
X95219180Y-60127415D01*
X99083139Y-63991374D01*
X99083149Y-63991385D01*
X99087479Y-63995715D01*
X99087480Y-63995716D01*
X99199284Y-64107520D01*
X99276004Y-64151814D01*
X99336215Y-64186577D01*
X99488942Y-64227500D01*
X99488943Y-64227500D01*
X101767331Y-64227500D01*
X101767347Y-64227501D01*
X101774943Y-64227501D01*
X101933054Y-64227501D01*
X101933057Y-64227501D01*
X102085785Y-64186577D01*
X102145996Y-64151814D01*
X102222716Y-64107520D01*
X102334520Y-63995716D01*
X102334520Y-63995714D01*
X102344724Y-63985511D01*
X102344727Y-63985506D01*
X102955417Y-63374819D01*
X103016740Y-63341334D01*
X103043098Y-63338500D01*
X103486199Y-63338500D01*
X103553238Y-63358185D01*
X103598993Y-63410989D01*
X103603905Y-63423496D01*
X103631685Y-63507331D01*
X103631687Y-63507336D01*
X103637660Y-63517019D01*
X103723788Y-63656656D01*
X103847844Y-63780712D01*
X103997166Y-63872814D01*
X104163703Y-63927999D01*
X104266491Y-63938500D01*
X105066508Y-63938499D01*
X105066516Y-63938498D01*
X105066519Y-63938498D01*
X105144275Y-63930555D01*
X105169297Y-63927999D01*
X105335834Y-63872814D01*
X105485156Y-63780712D01*
X105578819Y-63687049D01*
X105640142Y-63653564D01*
X105709834Y-63658548D01*
X105754181Y-63687049D01*
X105847844Y-63780712D01*
X105997166Y-63872814D01*
X106163703Y-63927999D01*
X106266491Y-63938500D01*
X107066508Y-63938499D01*
X107066516Y-63938498D01*
X107066519Y-63938498D01*
X107144275Y-63930555D01*
X107169297Y-63927999D01*
X107335834Y-63872814D01*
X107485156Y-63780712D01*
X107609212Y-63656656D01*
X107701314Y-63507334D01*
X107729095Y-63423495D01*
X107768868Y-63366051D01*
X107833384Y-63339228D01*
X107846801Y-63338500D01*
X109681903Y-63338500D01*
X109748942Y-63358185D01*
X109769584Y-63374819D01*
X110894139Y-64499374D01*
X110894149Y-64499385D01*
X110898479Y-64503715D01*
X110898480Y-64503716D01*
X111010284Y-64615520D01*
X111010286Y-64615521D01*
X111010287Y-64615522D01*
X111081459Y-64656613D01*
X111129674Y-64707180D01*
X111142898Y-64775787D01*
X111116930Y-64840651D01*
X111060016Y-64881180D01*
X111019459Y-64888000D01*
X76927000Y-64888000D01*
X76859961Y-64868315D01*
X76814206Y-64815511D01*
X76803000Y-64764000D01*
X76803000Y-41537000D01*
X76822685Y-41469961D01*
X76875489Y-41424206D01*
X76927000Y-41413000D01*
X120224000Y-41413000D01*
X120291039Y-41432685D01*
G37*
%TD.AperFunction*%
%TD*%
M02*
