%TF.GenerationSoftware,KiCad,Pcbnew,9.0.0*%
%TF.CreationDate,2025-03-10T19:20:38+08:00*%
%TF.ProjectId,xk9_miniencabulator,786b395f-6d69-46e6-9965-6e636162756c,rev?*%
%TF.SameCoordinates,Original*%
%TF.FileFunction,Legend,Top*%
%TF.FilePolarity,Positive*%
%FSLAX46Y46*%
G04 Gerber Fmt 4.6, Leading zero omitted, Abs format (unit mm)*
G04 Created by KiCad (PCBNEW 9.0.0) date 2025-03-10 19:20:38*
%MOMM*%
%LPD*%
G01*
G04 APERTURE LIST*
%ADD10C,0.100000*%
%ADD11C,0.150000*%
%ADD12C,0.120000*%
G04 APERTURE END LIST*
D10*
X134256265Y-63247769D02*
X134303884Y-63200150D01*
X134303884Y-63200150D02*
X134399122Y-63152531D01*
X134399122Y-63152531D02*
X134637217Y-63152531D01*
X134637217Y-63152531D02*
X134732455Y-63200150D01*
X134732455Y-63200150D02*
X134780074Y-63247769D01*
X134780074Y-63247769D02*
X134827693Y-63343007D01*
X134827693Y-63343007D02*
X134827693Y-63438245D01*
X134827693Y-63438245D02*
X134780074Y-63581102D01*
X134780074Y-63581102D02*
X134208646Y-64152531D01*
X134208646Y-64152531D02*
X134827693Y-64152531D01*
X135446741Y-63152531D02*
X135541979Y-63152531D01*
X135541979Y-63152531D02*
X135637217Y-63200150D01*
X135637217Y-63200150D02*
X135684836Y-63247769D01*
X135684836Y-63247769D02*
X135732455Y-63343007D01*
X135732455Y-63343007D02*
X135780074Y-63533483D01*
X135780074Y-63533483D02*
X135780074Y-63771578D01*
X135780074Y-63771578D02*
X135732455Y-63962054D01*
X135732455Y-63962054D02*
X135684836Y-64057292D01*
X135684836Y-64057292D02*
X135637217Y-64104912D01*
X135637217Y-64104912D02*
X135541979Y-64152531D01*
X135541979Y-64152531D02*
X135446741Y-64152531D01*
X135446741Y-64152531D02*
X135351503Y-64104912D01*
X135351503Y-64104912D02*
X135303884Y-64057292D01*
X135303884Y-64057292D02*
X135256265Y-63962054D01*
X135256265Y-63962054D02*
X135208646Y-63771578D01*
X135208646Y-63771578D02*
X135208646Y-63533483D01*
X135208646Y-63533483D02*
X135256265Y-63343007D01*
X135256265Y-63343007D02*
X135303884Y-63247769D01*
X135303884Y-63247769D02*
X135351503Y-63200150D01*
X135351503Y-63200150D02*
X135446741Y-63152531D01*
X136161027Y-63247769D02*
X136208646Y-63200150D01*
X136208646Y-63200150D02*
X136303884Y-63152531D01*
X136303884Y-63152531D02*
X136541979Y-63152531D01*
X136541979Y-63152531D02*
X136637217Y-63200150D01*
X136637217Y-63200150D02*
X136684836Y-63247769D01*
X136684836Y-63247769D02*
X136732455Y-63343007D01*
X136732455Y-63343007D02*
X136732455Y-63438245D01*
X136732455Y-63438245D02*
X136684836Y-63581102D01*
X136684836Y-63581102D02*
X136113408Y-64152531D01*
X136113408Y-64152531D02*
X136732455Y-64152531D01*
X137637217Y-63152531D02*
X137161027Y-63152531D01*
X137161027Y-63152531D02*
X137113408Y-63628721D01*
X137113408Y-63628721D02*
X137161027Y-63581102D01*
X137161027Y-63581102D02*
X137256265Y-63533483D01*
X137256265Y-63533483D02*
X137494360Y-63533483D01*
X137494360Y-63533483D02*
X137589598Y-63581102D01*
X137589598Y-63581102D02*
X137637217Y-63628721D01*
X137637217Y-63628721D02*
X137684836Y-63723959D01*
X137684836Y-63723959D02*
X137684836Y-63962054D01*
X137684836Y-63962054D02*
X137637217Y-64057292D01*
X137637217Y-64057292D02*
X137589598Y-64104912D01*
X137589598Y-64104912D02*
X137494360Y-64152531D01*
X137494360Y-64152531D02*
X137256265Y-64152531D01*
X137256265Y-64152531D02*
X137161027Y-64104912D01*
X137161027Y-64104912D02*
X137113408Y-64057292D01*
X138113408Y-64057292D02*
X138161027Y-64104912D01*
X138161027Y-64104912D02*
X138113408Y-64152531D01*
X138113408Y-64152531D02*
X138065789Y-64104912D01*
X138065789Y-64104912D02*
X138113408Y-64057292D01*
X138113408Y-64057292D02*
X138113408Y-64152531D01*
X138780074Y-63152531D02*
X138875312Y-63152531D01*
X138875312Y-63152531D02*
X138970550Y-63200150D01*
X138970550Y-63200150D02*
X139018169Y-63247769D01*
X139018169Y-63247769D02*
X139065788Y-63343007D01*
X139065788Y-63343007D02*
X139113407Y-63533483D01*
X139113407Y-63533483D02*
X139113407Y-63771578D01*
X139113407Y-63771578D02*
X139065788Y-63962054D01*
X139065788Y-63962054D02*
X139018169Y-64057292D01*
X139018169Y-64057292D02*
X138970550Y-64104912D01*
X138970550Y-64104912D02*
X138875312Y-64152531D01*
X138875312Y-64152531D02*
X138780074Y-64152531D01*
X138780074Y-64152531D02*
X138684836Y-64104912D01*
X138684836Y-64104912D02*
X138637217Y-64057292D01*
X138637217Y-64057292D02*
X138589598Y-63962054D01*
X138589598Y-63962054D02*
X138541979Y-63771578D01*
X138541979Y-63771578D02*
X138541979Y-63533483D01*
X138541979Y-63533483D02*
X138589598Y-63343007D01*
X138589598Y-63343007D02*
X138637217Y-63247769D01*
X138637217Y-63247769D02*
X138684836Y-63200150D01*
X138684836Y-63200150D02*
X138780074Y-63152531D01*
X139446741Y-63152531D02*
X140065788Y-63152531D01*
X140065788Y-63152531D02*
X139732455Y-63533483D01*
X139732455Y-63533483D02*
X139875312Y-63533483D01*
X139875312Y-63533483D02*
X139970550Y-63581102D01*
X139970550Y-63581102D02*
X140018169Y-63628721D01*
X140018169Y-63628721D02*
X140065788Y-63723959D01*
X140065788Y-63723959D02*
X140065788Y-63962054D01*
X140065788Y-63962054D02*
X140018169Y-64057292D01*
X140018169Y-64057292D02*
X139970550Y-64104912D01*
X139970550Y-64104912D02*
X139875312Y-64152531D01*
X139875312Y-64152531D02*
X139589598Y-64152531D01*
X139589598Y-64152531D02*
X139494360Y-64104912D01*
X139494360Y-64104912D02*
X139446741Y-64057292D01*
X140494360Y-64057292D02*
X140541979Y-64104912D01*
X140541979Y-64104912D02*
X140494360Y-64152531D01*
X140494360Y-64152531D02*
X140446741Y-64104912D01*
X140446741Y-64104912D02*
X140494360Y-64057292D01*
X140494360Y-64057292D02*
X140494360Y-64152531D01*
X141494359Y-64152531D02*
X140922931Y-64152531D01*
X141208645Y-64152531D02*
X141208645Y-63152531D01*
X141208645Y-63152531D02*
X141113407Y-63295388D01*
X141113407Y-63295388D02*
X141018169Y-63390626D01*
X141018169Y-63390626D02*
X140922931Y-63438245D01*
X142113407Y-63152531D02*
X142208645Y-63152531D01*
X142208645Y-63152531D02*
X142303883Y-63200150D01*
X142303883Y-63200150D02*
X142351502Y-63247769D01*
X142351502Y-63247769D02*
X142399121Y-63343007D01*
X142399121Y-63343007D02*
X142446740Y-63533483D01*
X142446740Y-63533483D02*
X142446740Y-63771578D01*
X142446740Y-63771578D02*
X142399121Y-63962054D01*
X142399121Y-63962054D02*
X142351502Y-64057292D01*
X142351502Y-64057292D02*
X142303883Y-64104912D01*
X142303883Y-64104912D02*
X142208645Y-64152531D01*
X142208645Y-64152531D02*
X142113407Y-64152531D01*
X142113407Y-64152531D02*
X142018169Y-64104912D01*
X142018169Y-64104912D02*
X141970550Y-64057292D01*
X141970550Y-64057292D02*
X141922931Y-63962054D01*
X141922931Y-63962054D02*
X141875312Y-63771578D01*
X141875312Y-63771578D02*
X141875312Y-63533483D01*
X141875312Y-63533483D02*
X141922931Y-63343007D01*
X141922931Y-63343007D02*
X141970550Y-63247769D01*
X141970550Y-63247769D02*
X142018169Y-63200150D01*
X142018169Y-63200150D02*
X142113407Y-63152531D01*
X134161027Y-64762475D02*
X134732455Y-64762475D01*
X134446741Y-65762475D02*
X134446741Y-64762475D01*
X135446741Y-65714856D02*
X135351503Y-65762475D01*
X135351503Y-65762475D02*
X135161027Y-65762475D01*
X135161027Y-65762475D02*
X135065789Y-65714856D01*
X135065789Y-65714856D02*
X135018170Y-65619617D01*
X135018170Y-65619617D02*
X135018170Y-65238665D01*
X135018170Y-65238665D02*
X135065789Y-65143427D01*
X135065789Y-65143427D02*
X135161027Y-65095808D01*
X135161027Y-65095808D02*
X135351503Y-65095808D01*
X135351503Y-65095808D02*
X135446741Y-65143427D01*
X135446741Y-65143427D02*
X135494360Y-65238665D01*
X135494360Y-65238665D02*
X135494360Y-65333903D01*
X135494360Y-65333903D02*
X135018170Y-65429141D01*
X136351503Y-65762475D02*
X136351503Y-65238665D01*
X136351503Y-65238665D02*
X136303884Y-65143427D01*
X136303884Y-65143427D02*
X136208646Y-65095808D01*
X136208646Y-65095808D02*
X136018170Y-65095808D01*
X136018170Y-65095808D02*
X135922932Y-65143427D01*
X136351503Y-65714856D02*
X136256265Y-65762475D01*
X136256265Y-65762475D02*
X136018170Y-65762475D01*
X136018170Y-65762475D02*
X135922932Y-65714856D01*
X135922932Y-65714856D02*
X135875313Y-65619617D01*
X135875313Y-65619617D02*
X135875313Y-65524379D01*
X135875313Y-65524379D02*
X135922932Y-65429141D01*
X135922932Y-65429141D02*
X136018170Y-65381522D01*
X136018170Y-65381522D02*
X136256265Y-65381522D01*
X136256265Y-65381522D02*
X136351503Y-65333903D01*
X136827694Y-65762475D02*
X136827694Y-65095808D01*
X136827694Y-65191046D02*
X136875313Y-65143427D01*
X136875313Y-65143427D02*
X136970551Y-65095808D01*
X136970551Y-65095808D02*
X137113408Y-65095808D01*
X137113408Y-65095808D02*
X137208646Y-65143427D01*
X137208646Y-65143427D02*
X137256265Y-65238665D01*
X137256265Y-65238665D02*
X137256265Y-65762475D01*
X137256265Y-65238665D02*
X137303884Y-65143427D01*
X137303884Y-65143427D02*
X137399122Y-65095808D01*
X137399122Y-65095808D02*
X137541979Y-65095808D01*
X137541979Y-65095808D02*
X137637218Y-65143427D01*
X137637218Y-65143427D02*
X137684837Y-65238665D01*
X137684837Y-65238665D02*
X137684837Y-65762475D01*
X139446741Y-65762475D02*
X138875313Y-65762475D01*
X139161027Y-65762475D02*
X139161027Y-64762475D01*
X139161027Y-64762475D02*
X139065789Y-64905332D01*
X139065789Y-64905332D02*
X138970551Y-65000570D01*
X138970551Y-65000570D02*
X138875313Y-65048189D01*
X134161027Y-66372419D02*
X134494360Y-67372419D01*
X134494360Y-67372419D02*
X134827693Y-66372419D01*
X135684836Y-67372419D02*
X135113408Y-67372419D01*
X135399122Y-67372419D02*
X135399122Y-66372419D01*
X135399122Y-66372419D02*
X135303884Y-66515276D01*
X135303884Y-66515276D02*
X135208646Y-66610514D01*
X135208646Y-66610514D02*
X135113408Y-66658133D01*
D11*
X104487819Y-47958333D02*
X105202104Y-47958333D01*
X105202104Y-47958333D02*
X105344961Y-48005952D01*
X105344961Y-48005952D02*
X105440200Y-48101190D01*
X105440200Y-48101190D02*
X105487819Y-48244047D01*
X105487819Y-48244047D02*
X105487819Y-48339285D01*
X105487819Y-46958333D02*
X105487819Y-47529761D01*
X105487819Y-47244047D02*
X104487819Y-47244047D01*
X104487819Y-47244047D02*
X104630676Y-47339285D01*
X104630676Y-47339285D02*
X104725914Y-47434523D01*
X104725914Y-47434523D02*
X104773533Y-47529761D01*
X119270819Y-59308904D02*
X120080342Y-59308904D01*
X120080342Y-59308904D02*
X120175580Y-59261285D01*
X120175580Y-59261285D02*
X120223200Y-59213666D01*
X120223200Y-59213666D02*
X120270819Y-59118428D01*
X120270819Y-59118428D02*
X120270819Y-58927952D01*
X120270819Y-58927952D02*
X120223200Y-58832714D01*
X120223200Y-58832714D02*
X120175580Y-58785095D01*
X120175580Y-58785095D02*
X120080342Y-58737476D01*
X120080342Y-58737476D02*
X119270819Y-58737476D01*
X119604152Y-57832714D02*
X120270819Y-57832714D01*
X119223200Y-58070809D02*
X119937485Y-58308904D01*
X119937485Y-58308904D02*
X119937485Y-57689857D01*
X78764095Y-62558009D02*
X78906952Y-62605628D01*
X78906952Y-62605628D02*
X78954571Y-62653247D01*
X78954571Y-62653247D02*
X79002190Y-62748485D01*
X79002190Y-62748485D02*
X79002190Y-62891342D01*
X79002190Y-62891342D02*
X78954571Y-62986580D01*
X78954571Y-62986580D02*
X78906952Y-63034200D01*
X78906952Y-63034200D02*
X78811714Y-63081819D01*
X78811714Y-63081819D02*
X78430762Y-63081819D01*
X78430762Y-63081819D02*
X78430762Y-62081819D01*
X78430762Y-62081819D02*
X78764095Y-62081819D01*
X78764095Y-62081819D02*
X78859333Y-62129438D01*
X78859333Y-62129438D02*
X78906952Y-62177057D01*
X78906952Y-62177057D02*
X78954571Y-62272295D01*
X78954571Y-62272295D02*
X78954571Y-62367533D01*
X78954571Y-62367533D02*
X78906952Y-62462771D01*
X78906952Y-62462771D02*
X78859333Y-62510390D01*
X78859333Y-62510390D02*
X78764095Y-62558009D01*
X78764095Y-62558009D02*
X78430762Y-62558009D01*
X79430762Y-62081819D02*
X79430762Y-62891342D01*
X79430762Y-62891342D02*
X79478381Y-62986580D01*
X79478381Y-62986580D02*
X79526000Y-63034200D01*
X79526000Y-63034200D02*
X79621238Y-63081819D01*
X79621238Y-63081819D02*
X79811714Y-63081819D01*
X79811714Y-63081819D02*
X79906952Y-63034200D01*
X79906952Y-63034200D02*
X79954571Y-62986580D01*
X79954571Y-62986580D02*
X80002190Y-62891342D01*
X80002190Y-62891342D02*
X80002190Y-62081819D01*
X80335524Y-62081819D02*
X80906952Y-62081819D01*
X80621238Y-63081819D02*
X80621238Y-62081819D01*
X81097429Y-62081819D02*
X81668857Y-62081819D01*
X81383143Y-63081819D02*
X81383143Y-62081819D01*
X82192667Y-62081819D02*
X82383143Y-62081819D01*
X82383143Y-62081819D02*
X82478381Y-62129438D01*
X82478381Y-62129438D02*
X82573619Y-62224676D01*
X82573619Y-62224676D02*
X82621238Y-62415152D01*
X82621238Y-62415152D02*
X82621238Y-62748485D01*
X82621238Y-62748485D02*
X82573619Y-62938961D01*
X82573619Y-62938961D02*
X82478381Y-63034200D01*
X82478381Y-63034200D02*
X82383143Y-63081819D01*
X82383143Y-63081819D02*
X82192667Y-63081819D01*
X82192667Y-63081819D02*
X82097429Y-63034200D01*
X82097429Y-63034200D02*
X82002191Y-62938961D01*
X82002191Y-62938961D02*
X81954572Y-62748485D01*
X81954572Y-62748485D02*
X81954572Y-62415152D01*
X81954572Y-62415152D02*
X82002191Y-62224676D01*
X82002191Y-62224676D02*
X82097429Y-62129438D01*
X82097429Y-62129438D02*
X82192667Y-62081819D01*
X83049810Y-63081819D02*
X83049810Y-62081819D01*
X83049810Y-62081819D02*
X83621238Y-63081819D01*
X83621238Y-63081819D02*
X83621238Y-62081819D01*
X80875333Y-53048819D02*
X80875333Y-52048819D01*
X80875333Y-52048819D02*
X81256285Y-52048819D01*
X81256285Y-52048819D02*
X81351523Y-52096438D01*
X81351523Y-52096438D02*
X81399142Y-52144057D01*
X81399142Y-52144057D02*
X81446761Y-52239295D01*
X81446761Y-52239295D02*
X81446761Y-52382152D01*
X81446761Y-52382152D02*
X81399142Y-52477390D01*
X81399142Y-52477390D02*
X81351523Y-52525009D01*
X81351523Y-52525009D02*
X81256285Y-52572628D01*
X81256285Y-52572628D02*
X80875333Y-52572628D01*
X82065809Y-52048819D02*
X82256285Y-52048819D01*
X82256285Y-52048819D02*
X82351523Y-52096438D01*
X82351523Y-52096438D02*
X82446761Y-52191676D01*
X82446761Y-52191676D02*
X82494380Y-52382152D01*
X82494380Y-52382152D02*
X82494380Y-52715485D01*
X82494380Y-52715485D02*
X82446761Y-52905961D01*
X82446761Y-52905961D02*
X82351523Y-53001200D01*
X82351523Y-53001200D02*
X82256285Y-53048819D01*
X82256285Y-53048819D02*
X82065809Y-53048819D01*
X82065809Y-53048819D02*
X81970571Y-53001200D01*
X81970571Y-53001200D02*
X81875333Y-52905961D01*
X81875333Y-52905961D02*
X81827714Y-52715485D01*
X81827714Y-52715485D02*
X81827714Y-52382152D01*
X81827714Y-52382152D02*
X81875333Y-52191676D01*
X81875333Y-52191676D02*
X81970571Y-52096438D01*
X81970571Y-52096438D02*
X82065809Y-52048819D01*
X82780095Y-52048819D02*
X83351523Y-52048819D01*
X83065809Y-53048819D02*
X83065809Y-52048819D01*
X115943142Y-53048819D02*
X115466952Y-53048819D01*
X115466952Y-53048819D02*
X115466952Y-52048819D01*
X116276476Y-52525009D02*
X116609809Y-52525009D01*
X116752666Y-53048819D02*
X116276476Y-53048819D01*
X116276476Y-53048819D02*
X116276476Y-52048819D01*
X116276476Y-52048819D02*
X116752666Y-52048819D01*
X117181238Y-53048819D02*
X117181238Y-52048819D01*
X117181238Y-52048819D02*
X117419333Y-52048819D01*
X117419333Y-52048819D02*
X117562190Y-52096438D01*
X117562190Y-52096438D02*
X117657428Y-52191676D01*
X117657428Y-52191676D02*
X117705047Y-52286914D01*
X117705047Y-52286914D02*
X117752666Y-52477390D01*
X117752666Y-52477390D02*
X117752666Y-52620247D01*
X117752666Y-52620247D02*
X117705047Y-52810723D01*
X117705047Y-52810723D02*
X117657428Y-52905961D01*
X117657428Y-52905961D02*
X117562190Y-53001200D01*
X117562190Y-53001200D02*
X117419333Y-53048819D01*
X117419333Y-53048819D02*
X117181238Y-53048819D01*
X114935048Y-48587866D02*
X115696953Y-48587866D01*
X115316000Y-48968819D02*
X115316000Y-48206914D01*
X117475048Y-48587866D02*
X118236953Y-48587866D01*
X117729095Y-34735819D02*
X117729095Y-33735819D01*
X117729095Y-34212009D02*
X118300523Y-34212009D01*
X118300523Y-34735819D02*
X118300523Y-33735819D01*
X118681476Y-33735819D02*
X119300523Y-33735819D01*
X119300523Y-33735819D02*
X118967190Y-34116771D01*
X118967190Y-34116771D02*
X119110047Y-34116771D01*
X119110047Y-34116771D02*
X119205285Y-34164390D01*
X119205285Y-34164390D02*
X119252904Y-34212009D01*
X119252904Y-34212009D02*
X119300523Y-34307247D01*
X119300523Y-34307247D02*
X119300523Y-34545342D01*
X119300523Y-34545342D02*
X119252904Y-34640580D01*
X119252904Y-34640580D02*
X119205285Y-34688200D01*
X119205285Y-34688200D02*
X119110047Y-34735819D01*
X119110047Y-34735819D02*
X118824333Y-34735819D01*
X118824333Y-34735819D02*
X118729095Y-34688200D01*
X118729095Y-34688200D02*
X118681476Y-34640580D01*
X85764833Y-63351580D02*
X85717214Y-63399200D01*
X85717214Y-63399200D02*
X85574357Y-63446819D01*
X85574357Y-63446819D02*
X85479119Y-63446819D01*
X85479119Y-63446819D02*
X85336262Y-63399200D01*
X85336262Y-63399200D02*
X85241024Y-63303961D01*
X85241024Y-63303961D02*
X85193405Y-63208723D01*
X85193405Y-63208723D02*
X85145786Y-63018247D01*
X85145786Y-63018247D02*
X85145786Y-62875390D01*
X85145786Y-62875390D02*
X85193405Y-62684914D01*
X85193405Y-62684914D02*
X85241024Y-62589676D01*
X85241024Y-62589676D02*
X85336262Y-62494438D01*
X85336262Y-62494438D02*
X85479119Y-62446819D01*
X85479119Y-62446819D02*
X85574357Y-62446819D01*
X85574357Y-62446819D02*
X85717214Y-62494438D01*
X85717214Y-62494438D02*
X85764833Y-62542057D01*
X86145786Y-62542057D02*
X86193405Y-62494438D01*
X86193405Y-62494438D02*
X86288643Y-62446819D01*
X86288643Y-62446819D02*
X86526738Y-62446819D01*
X86526738Y-62446819D02*
X86621976Y-62494438D01*
X86621976Y-62494438D02*
X86669595Y-62542057D01*
X86669595Y-62542057D02*
X86717214Y-62637295D01*
X86717214Y-62637295D02*
X86717214Y-62732533D01*
X86717214Y-62732533D02*
X86669595Y-62875390D01*
X86669595Y-62875390D02*
X86098167Y-63446819D01*
X86098167Y-63446819D02*
X86717214Y-63446819D01*
X117729095Y-66739819D02*
X117729095Y-65739819D01*
X117729095Y-66216009D02*
X118300523Y-66216009D01*
X118300523Y-66739819D02*
X118300523Y-65739819D01*
X119205285Y-66073152D02*
X119205285Y-66739819D01*
X118967190Y-65692200D02*
X118729095Y-66406485D01*
X118729095Y-66406485D02*
X119348142Y-66406485D01*
X108196191Y-52048819D02*
X108529524Y-53048819D01*
X108529524Y-53048819D02*
X108862857Y-52048819D01*
X109196191Y-53048819D02*
X109196191Y-52382152D01*
X109196191Y-52048819D02*
X109148572Y-52096438D01*
X109148572Y-52096438D02*
X109196191Y-52144057D01*
X109196191Y-52144057D02*
X109243810Y-52096438D01*
X109243810Y-52096438D02*
X109196191Y-52048819D01*
X109196191Y-52048819D02*
X109196191Y-52144057D01*
X109672381Y-52382152D02*
X109672381Y-53048819D01*
X109672381Y-52477390D02*
X109720000Y-52429771D01*
X109720000Y-52429771D02*
X109815238Y-52382152D01*
X109815238Y-52382152D02*
X109958095Y-52382152D01*
X109958095Y-52382152D02*
X110053333Y-52429771D01*
X110053333Y-52429771D02*
X110100952Y-52525009D01*
X110100952Y-52525009D02*
X110100952Y-53048819D01*
X107609048Y-48587866D02*
X108370953Y-48587866D01*
X107990000Y-48968819D02*
X107990000Y-48206914D01*
X110109048Y-48587866D02*
X110870953Y-48587866D01*
X108624333Y-59287580D02*
X108576714Y-59335200D01*
X108576714Y-59335200D02*
X108433857Y-59382819D01*
X108433857Y-59382819D02*
X108338619Y-59382819D01*
X108338619Y-59382819D02*
X108195762Y-59335200D01*
X108195762Y-59335200D02*
X108100524Y-59239961D01*
X108100524Y-59239961D02*
X108052905Y-59144723D01*
X108052905Y-59144723D02*
X108005286Y-58954247D01*
X108005286Y-58954247D02*
X108005286Y-58811390D01*
X108005286Y-58811390D02*
X108052905Y-58620914D01*
X108052905Y-58620914D02*
X108100524Y-58525676D01*
X108100524Y-58525676D02*
X108195762Y-58430438D01*
X108195762Y-58430438D02*
X108338619Y-58382819D01*
X108338619Y-58382819D02*
X108433857Y-58382819D01*
X108433857Y-58382819D02*
X108576714Y-58430438D01*
X108576714Y-58430438D02*
X108624333Y-58478057D01*
X109576714Y-59382819D02*
X109005286Y-59382819D01*
X109291000Y-59382819D02*
X109291000Y-58382819D01*
X109291000Y-58382819D02*
X109195762Y-58525676D01*
X109195762Y-58525676D02*
X109100524Y-58620914D01*
X109100524Y-58620914D02*
X109005286Y-58668533D01*
X85860333Y-60017819D02*
X85527000Y-59541628D01*
X85288905Y-60017819D02*
X85288905Y-59017819D01*
X85288905Y-59017819D02*
X85669857Y-59017819D01*
X85669857Y-59017819D02*
X85765095Y-59065438D01*
X85765095Y-59065438D02*
X85812714Y-59113057D01*
X85812714Y-59113057D02*
X85860333Y-59208295D01*
X85860333Y-59208295D02*
X85860333Y-59351152D01*
X85860333Y-59351152D02*
X85812714Y-59446390D01*
X85812714Y-59446390D02*
X85765095Y-59494009D01*
X85765095Y-59494009D02*
X85669857Y-59541628D01*
X85669857Y-59541628D02*
X85288905Y-59541628D01*
X86241286Y-59113057D02*
X86288905Y-59065438D01*
X86288905Y-59065438D02*
X86384143Y-59017819D01*
X86384143Y-59017819D02*
X86622238Y-59017819D01*
X86622238Y-59017819D02*
X86717476Y-59065438D01*
X86717476Y-59065438D02*
X86765095Y-59113057D01*
X86765095Y-59113057D02*
X86812714Y-59208295D01*
X86812714Y-59208295D02*
X86812714Y-59303533D01*
X86812714Y-59303533D02*
X86765095Y-59446390D01*
X86765095Y-59446390D02*
X86193667Y-60017819D01*
X86193667Y-60017819D02*
X86812714Y-60017819D01*
X85860333Y-56517819D02*
X85527000Y-56041628D01*
X85288905Y-56517819D02*
X85288905Y-55517819D01*
X85288905Y-55517819D02*
X85669857Y-55517819D01*
X85669857Y-55517819D02*
X85765095Y-55565438D01*
X85765095Y-55565438D02*
X85812714Y-55613057D01*
X85812714Y-55613057D02*
X85860333Y-55708295D01*
X85860333Y-55708295D02*
X85860333Y-55851152D01*
X85860333Y-55851152D02*
X85812714Y-55946390D01*
X85812714Y-55946390D02*
X85765095Y-55994009D01*
X85765095Y-55994009D02*
X85669857Y-56041628D01*
X85669857Y-56041628D02*
X85288905Y-56041628D01*
X86812714Y-56517819D02*
X86241286Y-56517819D01*
X86527000Y-56517819D02*
X86527000Y-55517819D01*
X86527000Y-55517819D02*
X86431762Y-55660676D01*
X86431762Y-55660676D02*
X86336524Y-55755914D01*
X86336524Y-55755914D02*
X86241286Y-55803533D01*
X108499833Y-63192819D02*
X108166500Y-62716628D01*
X107928405Y-63192819D02*
X107928405Y-62192819D01*
X107928405Y-62192819D02*
X108309357Y-62192819D01*
X108309357Y-62192819D02*
X108404595Y-62240438D01*
X108404595Y-62240438D02*
X108452214Y-62288057D01*
X108452214Y-62288057D02*
X108499833Y-62383295D01*
X108499833Y-62383295D02*
X108499833Y-62526152D01*
X108499833Y-62526152D02*
X108452214Y-62621390D01*
X108452214Y-62621390D02*
X108404595Y-62669009D01*
X108404595Y-62669009D02*
X108309357Y-62716628D01*
X108309357Y-62716628D02*
X107928405Y-62716628D01*
X108833167Y-62192819D02*
X109452214Y-62192819D01*
X109452214Y-62192819D02*
X109118881Y-62573771D01*
X109118881Y-62573771D02*
X109261738Y-62573771D01*
X109261738Y-62573771D02*
X109356976Y-62621390D01*
X109356976Y-62621390D02*
X109404595Y-62669009D01*
X109404595Y-62669009D02*
X109452214Y-62764247D01*
X109452214Y-62764247D02*
X109452214Y-63002342D01*
X109452214Y-63002342D02*
X109404595Y-63097580D01*
X109404595Y-63097580D02*
X109356976Y-63145200D01*
X109356976Y-63145200D02*
X109261738Y-63192819D01*
X109261738Y-63192819D02*
X108976024Y-63192819D01*
X108976024Y-63192819D02*
X108880786Y-63145200D01*
X108880786Y-63145200D02*
X108833167Y-63097580D01*
X77724095Y-66739819D02*
X77724095Y-65739819D01*
X77724095Y-66216009D02*
X78295523Y-66216009D01*
X78295523Y-66739819D02*
X78295523Y-65739819D01*
X78724095Y-65835057D02*
X78771714Y-65787438D01*
X78771714Y-65787438D02*
X78866952Y-65739819D01*
X78866952Y-65739819D02*
X79105047Y-65739819D01*
X79105047Y-65739819D02*
X79200285Y-65787438D01*
X79200285Y-65787438D02*
X79247904Y-65835057D01*
X79247904Y-65835057D02*
X79295523Y-65930295D01*
X79295523Y-65930295D02*
X79295523Y-66025533D01*
X79295523Y-66025533D02*
X79247904Y-66168390D01*
X79247904Y-66168390D02*
X78676476Y-66739819D01*
X78676476Y-66739819D02*
X79295523Y-66739819D01*
X96520095Y-56687819D02*
X96520095Y-57497342D01*
X96520095Y-57497342D02*
X96567714Y-57592580D01*
X96567714Y-57592580D02*
X96615333Y-57640200D01*
X96615333Y-57640200D02*
X96710571Y-57687819D01*
X96710571Y-57687819D02*
X96901047Y-57687819D01*
X96901047Y-57687819D02*
X96996285Y-57640200D01*
X96996285Y-57640200D02*
X97043904Y-57592580D01*
X97043904Y-57592580D02*
X97091523Y-57497342D01*
X97091523Y-57497342D02*
X97091523Y-56687819D01*
X98091523Y-57687819D02*
X97520095Y-57687819D01*
X97805809Y-57687819D02*
X97805809Y-56687819D01*
X97805809Y-56687819D02*
X97710571Y-56830676D01*
X97710571Y-56830676D02*
X97615333Y-56925914D01*
X97615333Y-56925914D02*
X97520095Y-56973533D01*
X100282905Y-55191819D02*
X100282905Y-54191819D01*
X100282905Y-54191819D02*
X100521000Y-54191819D01*
X100521000Y-54191819D02*
X100663857Y-54239438D01*
X100663857Y-54239438D02*
X100759095Y-54334676D01*
X100759095Y-54334676D02*
X100806714Y-54429914D01*
X100806714Y-54429914D02*
X100854333Y-54620390D01*
X100854333Y-54620390D02*
X100854333Y-54763247D01*
X100854333Y-54763247D02*
X100806714Y-54953723D01*
X100806714Y-54953723D02*
X100759095Y-55048961D01*
X100759095Y-55048961D02*
X100663857Y-55144200D01*
X100663857Y-55144200D02*
X100521000Y-55191819D01*
X100521000Y-55191819D02*
X100282905Y-55191819D01*
X101806714Y-55191819D02*
X101235286Y-55191819D01*
X101521000Y-55191819D02*
X101521000Y-54191819D01*
X101521000Y-54191819D02*
X101425762Y-54334676D01*
X101425762Y-54334676D02*
X101330524Y-54429914D01*
X101330524Y-54429914D02*
X101235286Y-54477533D01*
X77724095Y-34735819D02*
X77724095Y-33735819D01*
X77724095Y-34212009D02*
X78295523Y-34212009D01*
X78295523Y-34735819D02*
X78295523Y-33735819D01*
X79295523Y-34735819D02*
X78724095Y-34735819D01*
X79009809Y-34735819D02*
X79009809Y-33735819D01*
X79009809Y-33735819D02*
X78914571Y-33878676D01*
X78914571Y-33878676D02*
X78819333Y-33973914D01*
X78819333Y-33973914D02*
X78724095Y-34021533D01*
D12*
%TO.C,J1*%
X88643000Y-43065000D02*
X104143000Y-43065000D01*
X88643000Y-52185000D02*
X88643000Y-43065000D01*
X89943000Y-44375000D02*
X94343000Y-44375000D01*
X89943000Y-50875000D02*
X89943000Y-44375000D01*
X94343000Y-44375000D02*
X94343000Y-43065000D01*
X94343000Y-44375000D02*
X94343000Y-44375000D01*
X98433000Y-41675000D02*
X98933000Y-42675000D01*
X98443000Y-43065000D02*
X98443000Y-44375000D01*
X98443000Y-44375000D02*
X102843000Y-44375000D01*
X98933000Y-42675000D02*
X99433000Y-41675000D01*
X99433000Y-41675000D02*
X98433000Y-41675000D01*
X102843000Y-44375000D02*
X102843000Y-50875000D01*
X102843000Y-50875000D02*
X89943000Y-50875000D01*
X104143000Y-43065000D02*
X104143000Y-52185000D01*
X104143000Y-52185000D02*
X88643000Y-52185000D01*
%TO.C,U4*%
X111906000Y-56697000D02*
X111906000Y-60457000D01*
X111906000Y-60457000D02*
X113166000Y-60457000D01*
X118726000Y-56697000D02*
X118726000Y-60457000D01*
X118726000Y-60457000D02*
X117466000Y-60457000D01*
X118956000Y-55657000D02*
X118626000Y-55417000D01*
X118956000Y-55177000D01*
X118956000Y-55657000D01*
G36*
X118956000Y-55657000D02*
G01*
X118626000Y-55417000D01*
X118956000Y-55177000D01*
X118956000Y-55657000D01*
G37*
%TO.C,J3*%
X78086000Y-56547000D02*
X78086000Y-60547000D01*
X78376000Y-55517000D02*
X78376000Y-61537000D01*
X78376000Y-61537000D02*
X83676000Y-61537000D01*
X78956000Y-55517000D02*
X78956000Y-56117000D01*
X78956000Y-56117000D02*
X80556000Y-56117000D01*
X79756000Y-60537000D02*
X80006000Y-60007000D01*
X79756000Y-60537000D02*
X82296000Y-60537000D01*
X79756000Y-61537000D02*
X79756000Y-60537000D01*
X80006000Y-60007000D02*
X82046000Y-60007000D01*
X80006000Y-61537000D02*
X80006000Y-60537000D01*
X80556000Y-56117000D02*
X80556000Y-55517000D01*
X81496000Y-55517000D02*
X81496000Y-56117000D01*
X81496000Y-56117000D02*
X83096000Y-56117000D01*
X82046000Y-60007000D02*
X82296000Y-60537000D01*
X82046000Y-61537000D02*
X82046000Y-60537000D01*
X82296000Y-60537000D02*
X82296000Y-61537000D01*
X83096000Y-56117000D02*
X83096000Y-55517000D01*
X83676000Y-55517000D02*
X78376000Y-55517000D01*
X83676000Y-61537000D02*
X83676000Y-55517000D01*
%TO.C,J5*%
X77832000Y-46514000D02*
X77832000Y-50514000D01*
X78122000Y-45484000D02*
X78122000Y-51504000D01*
X78122000Y-51504000D02*
X85962000Y-51504000D01*
X78702000Y-45484000D02*
X78702000Y-46084000D01*
X78702000Y-46084000D02*
X80302000Y-46084000D01*
X79502000Y-50504000D02*
X79752000Y-49974000D01*
X79502000Y-50504000D02*
X84582000Y-50504000D01*
X79502000Y-51504000D02*
X79502000Y-50504000D01*
X79752000Y-49974000D02*
X84332000Y-49974000D01*
X79752000Y-51504000D02*
X79752000Y-50504000D01*
X80302000Y-46084000D02*
X80302000Y-45484000D01*
X81242000Y-45484000D02*
X81242000Y-46084000D01*
X81242000Y-46084000D02*
X82842000Y-46084000D01*
X82842000Y-46084000D02*
X82842000Y-45484000D01*
X83782000Y-45484000D02*
X83782000Y-46084000D01*
X83782000Y-46084000D02*
X85382000Y-46084000D01*
X84332000Y-49974000D02*
X84582000Y-50504000D01*
X84332000Y-51504000D02*
X84332000Y-50504000D01*
X84582000Y-50504000D02*
X84582000Y-51504000D01*
X85382000Y-46084000D02*
X85382000Y-45484000D01*
X85962000Y-45484000D02*
X78122000Y-45484000D01*
X85962000Y-51504000D02*
X85962000Y-45484000D01*
%TO.C,J4*%
X113646000Y-46514000D02*
X113646000Y-50514000D01*
X113936000Y-45484000D02*
X113936000Y-51504000D01*
X113936000Y-51504000D02*
X119236000Y-51504000D01*
X114516000Y-45484000D02*
X114516000Y-46084000D01*
X114516000Y-46084000D02*
X116116000Y-46084000D01*
X115316000Y-50504000D02*
X115566000Y-49974000D01*
X115316000Y-50504000D02*
X117856000Y-50504000D01*
X115316000Y-51504000D02*
X115316000Y-50504000D01*
X115566000Y-49974000D02*
X117606000Y-49974000D01*
X115566000Y-51504000D02*
X115566000Y-50504000D01*
X116116000Y-46084000D02*
X116116000Y-45484000D01*
X117056000Y-45484000D02*
X117056000Y-46084000D01*
X117056000Y-46084000D02*
X118656000Y-46084000D01*
X117606000Y-49974000D02*
X117856000Y-50504000D01*
X117606000Y-51504000D02*
X117606000Y-50504000D01*
X117856000Y-50504000D02*
X117856000Y-51504000D01*
X118656000Y-46084000D02*
X118656000Y-45484000D01*
X119236000Y-45484000D02*
X113936000Y-45484000D01*
X119236000Y-51504000D02*
X119236000Y-45484000D01*
%TO.C,C2*%
X88670248Y-62257000D02*
X89192752Y-62257000D01*
X88670248Y-63727000D02*
X89192752Y-63727000D01*
%TO.C,J2*%
X106280000Y-46514000D02*
X106280000Y-50514000D01*
X106570000Y-45484000D02*
X106570000Y-51504000D01*
X106570000Y-51504000D02*
X111870000Y-51504000D01*
X107150000Y-45484000D02*
X107150000Y-46084000D01*
X107150000Y-46084000D02*
X108750000Y-46084000D01*
X107950000Y-50504000D02*
X108200000Y-49974000D01*
X107950000Y-50504000D02*
X110490000Y-50504000D01*
X107950000Y-51504000D02*
X107950000Y-50504000D01*
X108200000Y-49974000D02*
X110240000Y-49974000D01*
X108200000Y-51504000D02*
X108200000Y-50504000D01*
X108750000Y-46084000D02*
X108750000Y-45484000D01*
X109690000Y-45484000D02*
X109690000Y-46084000D01*
X109690000Y-46084000D02*
X111290000Y-46084000D01*
X110240000Y-49974000D02*
X110490000Y-50504000D01*
X110240000Y-51504000D02*
X110240000Y-50504000D01*
X110490000Y-50504000D02*
X110490000Y-51504000D01*
X111290000Y-46084000D02*
X111290000Y-45484000D01*
X111870000Y-45484000D02*
X106570000Y-45484000D01*
X111870000Y-51504000D02*
X111870000Y-45484000D01*
%TO.C,C1*%
X105529748Y-58193000D02*
X106052252Y-58193000D01*
X105529748Y-59663000D02*
X106052252Y-59663000D01*
%TO.C,R2*%
X88799936Y-58828000D02*
X89254064Y-58828000D01*
X88799936Y-60298000D02*
X89254064Y-60298000D01*
%TO.C,R1*%
X88799936Y-55328000D02*
X89254064Y-55328000D01*
X88799936Y-56798000D02*
X89254064Y-56798000D01*
%TO.C,R3*%
X105439436Y-62003000D02*
X105893564Y-62003000D01*
X105439436Y-63473000D02*
X105893564Y-63473000D01*
%TO.C,U1*%
X94522000Y-58073000D02*
X94522000Y-58343000D01*
X94522000Y-63593000D02*
X94522000Y-63323000D01*
X97282000Y-58073000D02*
X94522000Y-58073000D01*
X97282000Y-58073000D02*
X100042000Y-58073000D01*
X97282000Y-63593000D02*
X94522000Y-63593000D01*
X97282000Y-63593000D02*
X100042000Y-63593000D01*
X100042000Y-58073000D02*
X100042000Y-58343000D01*
X100042000Y-63593000D02*
X100042000Y-63323000D01*
X93757000Y-58343000D02*
X93517000Y-58013000D01*
X93997000Y-58013000D01*
X93757000Y-58343000D01*
G36*
X93757000Y-58343000D02*
G01*
X93517000Y-58013000D01*
X93997000Y-58013000D01*
X93757000Y-58343000D01*
G37*
%TO.C,D1*%
X106881000Y-53737000D02*
X102871000Y-53737000D01*
X106881000Y-55737000D02*
X102871000Y-55737000D01*
X106881000Y-55737000D02*
X106881000Y-53737000D01*
%TD*%
M02*
