M48
; DRILL file {KiCad 9.0.0} date 2025-03-10T19:20:33+0800
; FORMAT={-:-/ absolute / metric / decimal}
; #@! TF.CreationDate,2025-03-10T19:20:33+08:00
; #@! TF.GenerationSoftware,Kicad,Pcbnew,9.0.0
; #@! TF.FileFunction,Plated,1,2,PTH
FMAT,2
METRIC
; #@! TA.AperFunction,Plated,PTH,ViaDrill
T1C0.300
; #@! TA.AperFunction,Plated,PTH,ComponentDrill
T2C1.000
; #@! TA.AperFunction,Plated,PTH,ComponentDrill
T3C1.190
%
G90
G05
T1
X80.264Y-54.356
X84.582Y-58.547
X87.122Y-48.514
X89.734Y-54.356
X91.694Y-62.865
X100.838Y-56.896
X106.807Y-60.579
X117.602Y-57.531
X117.856Y-43.815
T2
X93.853Y-46.355
X93.853Y-48.895
X96.393Y-46.355
X96.393Y-48.895
X98.933Y-46.355
X98.933Y-48.895
T3
X79.502Y-48.514
X79.756Y-58.547
X82.042Y-48.514
X82.296Y-58.547
X84.582Y-48.514
X107.95Y-48.514
X110.49Y-48.514
X115.316Y-48.514
X117.856Y-48.514
M30
