%TF.GenerationSoftware,KiCad,Pcbnew,9.0.0*%
%TF.CreationDate,2025-03-10T19:20:38+08:00*%
%TF.ProjectId,xk9_miniencabulator,786b395f-6d69-46e6-9965-6e636162756c,rev?*%
%TF.SameCoordinates,Original*%
%TF.FileFunction,Soldermask,Top*%
%TF.FilePolarity,Negative*%
%FSLAX46Y46*%
G04 Gerber Fmt 4.6, Leading zero omitted, Abs format (unit mm)*
G04 Created by KiCad (PCBNEW 9.0.0) date 2025-03-10 19:20:38*
%MOMM*%
%LPD*%
G01*
G04 APERTURE LIST*
G04 Aperture macros list*
%AMRoundRect*
0 Rectangle with rounded corners*
0 $1 Rounding radius*
0 $2 $3 $4 $5 $6 $7 $8 $9 X,Y pos of 4 corners*
0 Add a 4 corners polygon primitive as box body*
4,1,4,$2,$3,$4,$5,$6,$7,$8,$9,$2,$3,0*
0 Add four circle primitives for the rounded corners*
1,1,$1+$1,$2,$3*
1,1,$1+$1,$4,$5*
1,1,$1+$1,$6,$7*
1,1,$1+$1,$8,$9*
0 Add four rect primitives between the rounded corners*
20,1,$1+$1,$2,$3,$4,$5,0*
20,1,$1+$1,$4,$5,$6,$7,0*
20,1,$1+$1,$6,$7,$8,$9,0*
20,1,$1+$1,$8,$9,$2,$3,0*%
G04 Aperture macros list end*
%ADD10RoundRect,0.250000X-0.600000X0.600000X-0.600000X-0.600000X0.600000X-0.600000X0.600000X0.600000X0*%
%ADD11C,1.700000*%
%ADD12RoundRect,0.375000X-0.375000X0.625000X-0.375000X-0.625000X0.375000X-0.625000X0.375000X0.625000X0*%
%ADD13RoundRect,0.500000X-1.400000X0.500000X-1.400000X-0.500000X1.400000X-0.500000X1.400000X0.500000X0*%
%ADD14RoundRect,0.250000X-0.620000X-0.845000X0.620000X-0.845000X0.620000X0.845000X-0.620000X0.845000X0*%
%ADD15O,1.740000X2.190000*%
%ADD16C,3.200000*%
%ADD17RoundRect,0.250000X-0.337500X-0.475000X0.337500X-0.475000X0.337500X0.475000X-0.337500X0.475000X0*%
%ADD18RoundRect,0.250000X-0.350000X-0.450000X0.350000X-0.450000X0.350000X0.450000X-0.350000X0.450000X0*%
%ADD19RoundRect,0.162500X-0.650000X-0.162500X0.650000X-0.162500X0.650000X0.162500X-0.650000X0.162500X0*%
%ADD20RoundRect,0.225000X0.225000X0.375000X-0.225000X0.375000X-0.225000X-0.375000X0.225000X-0.375000X0*%
G04 APERTURE END LIST*
D10*
%TO.C,J1*%
X98933000Y-46355000D03*
D11*
X98933000Y-48895000D03*
X96393000Y-46355000D03*
X96393000Y-48895000D03*
X93853000Y-46355000D03*
X93853000Y-48895000D03*
%TD*%
D12*
%TO.C,U4*%
X117616000Y-55397000D03*
X115316000Y-55397000D03*
D13*
X115316000Y-61697000D03*
D12*
X113016000Y-55397000D03*
%TD*%
D14*
%TO.C,J3*%
X79756000Y-58547000D03*
D15*
X82296000Y-58547000D03*
%TD*%
D14*
%TO.C,J5*%
X79502000Y-48514000D03*
D15*
X82042000Y-48514000D03*
X84582000Y-48514000D03*
%TD*%
D14*
%TO.C,J4*%
X115316000Y-48514000D03*
D15*
X117856000Y-48514000D03*
%TD*%
D16*
%TO.C,H3*%
X118491000Y-38481000D03*
%TD*%
D17*
%TO.C,C2*%
X87894000Y-62992000D03*
X89969000Y-62992000D03*
%TD*%
D16*
%TO.C,H4*%
X118491000Y-70485000D03*
%TD*%
D14*
%TO.C,J2*%
X107950000Y-48514000D03*
D15*
X110490000Y-48514000D03*
%TD*%
D17*
%TO.C,C1*%
X104753500Y-58928000D03*
X106828500Y-58928000D03*
%TD*%
D18*
%TO.C,R2*%
X88027000Y-59563000D03*
X90027000Y-59563000D03*
%TD*%
%TO.C,R1*%
X88027000Y-56063000D03*
X90027000Y-56063000D03*
%TD*%
%TO.C,R3*%
X104666500Y-62738000D03*
X106666500Y-62738000D03*
%TD*%
D16*
%TO.C,H2*%
X78486000Y-70485000D03*
%TD*%
D19*
%TO.C,U1*%
X93694500Y-58928000D03*
X93694500Y-60198000D03*
X93694500Y-61468000D03*
X93694500Y-62738000D03*
X100869500Y-62738000D03*
X100869500Y-61468000D03*
X100869500Y-60198000D03*
X100869500Y-58928000D03*
%TD*%
D20*
%TO.C,D1*%
X106171000Y-54737000D03*
X102871000Y-54737000D03*
%TD*%
D16*
%TO.C,H1*%
X78486000Y-38481000D03*
%TD*%
M02*
